<svg viewBox="0 0 997 428" xmlns="http://www.w3.org/2000/svg" font-family="Segoe UI, Helvetica, Arial, sans-serif">
<rect x="0" y="0" width="997" height="428" fill="#ffffff"/>
<text x="20" y="38" font-size="15" font-weight="700" fill="#0c4a6e">customer_db</text>
<text x="20" y="52" font-size="10.5" fill="#64748b">customer-service (:9002) · key columns shown</text>
<path d="M287,179.0 H326.0 V152.0 H365" stroke="#475569" stroke-width="1.3" fill="none"/>
<line x1="279" y1="173.0" x2="279" y2="185.0" stroke="#475569" stroke-width="1.3"/>
<path d="M377,152.0 L365,146.0 M377,152.0 L365,152.0 M377,152.0 L365,158.0" stroke="#475569" stroke-width="1.3" fill="none"/>
<path d="M287,179.0 H326.0 V329.0 H365" stroke="#475569" stroke-width="1.3" fill="none"/>
<line x1="279" y1="173.0" x2="279" y2="185.0" stroke="#475569" stroke-width="1.3"/>
<line x1="373" y1="323.0" x2="373" y2="335.0" stroke="#475569" stroke-width="1.3"/>
<path d="M632,329.0 H671.0 V134.0 H710" stroke="#475569" stroke-width="1.3" fill="none"/>
<line x1="624" y1="323.0" x2="624" y2="335.0" stroke="#475569" stroke-width="1.3"/>
<path d="M722,134.0 L710,128.0 M722,134.0 L710,134.0 M722,134.0 L710,140.0" stroke="#475569" stroke-width="1.3" fill="none"/>
<rect x="20" y="54" width="267" height="250" rx="7" fill="#ffffff" stroke="#0284c7" stroke-width="1.3"/>
<rect x="20" y="54" width="267" height="26" rx="7" fill="#e0f2fe" stroke="#0284c7" stroke-width="1.3"/>
<rect x="20" y="73" width="267" height="7" fill="#e0f2fe"/>
<line x1="20" y1="80" x2="287" y2="80" stroke="#0284c7" stroke-width="1.1"/>
<text x="30" y="72" font-size="12.5" font-weight="700" fill="#0c4a6e">customers</text>
<text x="30" y="93" font-size="8.5" font-weight="700" fill="#b45309">PK</text>
<text x="50" y="93" font-size="11" fill="#1f2937">id</text>
<text x="277" y="93" font-size="9.5" fill="#94a3b8" text-anchor="end">bigint</text>
<text x="30" y="111" font-size="8.5" font-weight="700" fill="#7c3aed">UQ</text>
<text x="50" y="111" font-size="11" fill="#1f2937">auth_user_id</text>
<text x="277" y="111" font-size="9.5" fill="#94a3b8" text-anchor="end">→ auth.users</text>
<text x="50" y="129" font-size="11" fill="#1f2937">full_name</text>
<text x="277" y="129" font-size="9.5" fill="#94a3b8" text-anchor="end">varchar</text>
<text x="30" y="147" font-size="8.5" font-weight="700" fill="#7c3aed">UQ</text>
<text x="50" y="147" font-size="11" fill="#1f2937">email</text>
<text x="277" y="147" font-size="9.5" fill="#94a3b8" text-anchor="end">varchar</text>
<text x="50" y="165" font-size="11" fill="#1f2937">phone</text>
<text x="277" y="165" font-size="9.5" fill="#94a3b8" text-anchor="end">varchar</text>
<text x="50" y="183" font-size="11" fill="#1f2937">enabled</text>
<text x="277" y="183" font-size="9.5" fill="#94a3b8" text-anchor="end">bool</text>
<text x="50" y="201" font-size="11" fill="#1f2937">free_delivery</text>
<text x="277" y="201" font-size="9.5" fill="#94a3b8" text-anchor="end">bool</text>
<text x="50" y="219" font-size="11" fill="#1f2937">preferred_payment_method</text>
<text x="277" y="219" font-size="9.5" fill="#94a3b8" text-anchor="end">enum</text>
<text x="50" y="237" font-size="11" fill="#1f2937">order_count</text>
<text x="277" y="237" font-size="9.5" fill="#94a3b8" text-anchor="end">bigint</text>
<text x="50" y="255" font-size="11" fill="#1f2937">total_spent</text>
<text x="277" y="255" font-size="9.5" fill="#94a3b8" text-anchor="end">numeric</text>
<text x="50" y="273" font-size="11" fill="#1f2937">last_order_date</text>
<text x="277" y="273" font-size="9.5" fill="#94a3b8" text-anchor="end">timestamp</text>
<text x="30" y="291" font-size="8.8" font-style="italic" fill="#b0b8c4">+ audit: created_at · updated_at · created_by</text>
<rect x="365" y="54" width="267" height="196" rx="7" fill="#ffffff" stroke="#0284c7" stroke-width="1.3"/>
<rect x="365" y="54" width="267" height="26" rx="7" fill="#e0f2fe" stroke="#0284c7" stroke-width="1.3"/>
<rect x="365" y="73" width="267" height="7" fill="#e0f2fe"/>
<line x1="365" y1="80" x2="632" y2="80" stroke="#0284c7" stroke-width="1.1"/>
<text x="375" y="72" font-size="12.5" font-weight="700" fill="#0c4a6e">addresses</text>
<text x="375" y="93" font-size="8.5" font-weight="700" fill="#b45309">PK</text>
<text x="395" y="93" font-size="11" fill="#1f2937">id</text>
<text x="622" y="93" font-size="9.5" fill="#94a3b8" text-anchor="end">bigint</text>
<text x="375" y="111" font-size="8.5" font-weight="700" fill="#0e7490">FK</text>
<text x="395" y="111" font-size="11" fill="#1f2937">customer_id</text>
<text x="622" y="111" font-size="9.5" fill="#94a3b8" text-anchor="end">→ customers</text>
<text x="395" y="129" font-size="11" fill="#1f2937">full_name / phone</text>
<text x="622" y="129" font-size="9.5" fill="#94a3b8" text-anchor="end">varchar</text>
<text x="395" y="147" font-size="11" fill="#1f2937">address_line1 / line2</text>
<text x="622" y="147" font-size="9.5" fill="#94a3b8" text-anchor="end">varchar</text>
<text x="395" y="165" font-size="11" fill="#1f2937">city / state / pincode</text>
<text x="622" y="165" font-size="9.5" fill="#94a3b8" text-anchor="end">varchar</text>
<text x="395" y="183" font-size="11" fill="#1f2937">landmark</text>
<text x="622" y="183" font-size="9.5" fill="#94a3b8" text-anchor="end">varchar</text>
<text x="395" y="201" font-size="11" fill="#1f2937">type</text>
<text x="622" y="201" font-size="9.5" fill="#94a3b8" text-anchor="end">HOME|WORK…</text>
<text x="395" y="219" font-size="11" fill="#1f2937">default_address</text>
<text x="622" y="219" font-size="9.5" fill="#94a3b8" text-anchor="end">bool</text>
<text x="375" y="237" font-size="8.8" font-style="italic" fill="#b0b8c4">+ audit: created_at · updated_at · created_by</text>
<rect x="365" y="276" width="267" height="106" rx="7" fill="#ffffff" stroke="#0284c7" stroke-width="1.3"/>
<rect x="365" y="276" width="267" height="26" rx="7" fill="#e0f2fe" stroke="#0284c7" stroke-width="1.3"/>
<rect x="365" y="295" width="267" height="7" fill="#e0f2fe"/>
<line x1="365" y1="302" x2="632" y2="302" stroke="#0284c7" stroke-width="1.1"/>
<text x="375" y="294" font-size="12.5" font-weight="700" fill="#0c4a6e">wallets</text>
<text x="375" y="315" font-size="8.5" font-weight="700" fill="#b45309">PK</text>
<text x="395" y="315" font-size="11" fill="#1f2937">id</text>
<text x="622" y="315" font-size="9.5" fill="#94a3b8" text-anchor="end">bigint</text>
<text x="375" y="333" font-size="8.5" font-weight="700" fill="#0e7490">FK,UQ</text>
<text x="409" y="333" font-size="11" fill="#1f2937">customer_id</text>
<text x="622" y="333" font-size="9.5" fill="#94a3b8" text-anchor="end">→ customers</text>
<text x="395" y="351" font-size="11" fill="#1f2937">balance</text>
<text x="622" y="351" font-size="9.5" fill="#94a3b8" text-anchor="end">numeric(12,2)</text>
<text x="375" y="369" font-size="8.8" font-style="italic" fill="#b0b8c4">+ audit: created_at · updated_at · created_by</text>
<rect x="710" y="54" width="267" height="160" rx="7" fill="#ffffff" stroke="#0284c7" stroke-width="1.3"/>
<rect x="710" y="54" width="267" height="26" rx="7" fill="#e0f2fe" stroke="#0284c7" stroke-width="1.3"/>
<rect x="710" y="73" width="267" height="7" fill="#e0f2fe"/>
<line x1="710" y1="80" x2="977" y2="80" stroke="#0284c7" stroke-width="1.1"/>
<text x="720" y="72" font-size="12.5" font-weight="700" fill="#0c4a6e">wallet_transactions</text>
<text x="720" y="93" font-size="8.5" font-weight="700" fill="#b45309">PK</text>
<text x="740" y="93" font-size="11" fill="#1f2937">id</text>
<text x="967" y="93" font-size="9.5" fill="#94a3b8" text-anchor="end">bigint</text>
<text x="720" y="111" font-size="8.5" font-weight="700" fill="#0e7490">FK</text>
<text x="740" y="111" font-size="11" fill="#1f2937">wallet_id</text>
<text x="967" y="111" font-size="9.5" fill="#94a3b8" text-anchor="end">→ wallets</text>
<text x="740" y="129" font-size="11" fill="#1f2937">type</text>
<text x="967" y="129" font-size="9.5" fill="#94a3b8" text-anchor="end">enum CREDIT|DEBIT</text>
<text x="740" y="147" font-size="11" fill="#1f2937">amount</text>
<text x="967" y="147" font-size="9.5" fill="#94a3b8" text-anchor="end">numeric</text>
<text x="740" y="165" font-size="11" fill="#1f2937">description</text>
<text x="967" y="165" font-size="9.5" fill="#94a3b8" text-anchor="end">varchar</text>
<text x="740" y="183" font-size="11" fill="#1f2937">reference_id</text>
<text x="967" y="183" font-size="9.5" fill="#94a3b8" text-anchor="end">varchar</text>
<text x="720" y="201" font-size="8.8" font-style="italic" fill="#b0b8c4">+ audit: created_at · updated_at · created_by</text>
</svg>