<svg viewBox="0 0 1060 758" xmlns="http://www.w3.org/2000/svg" font-family="Segoe UI, Helvetica, Arial, sans-serif">
<rect x="0" y="0" width="1060" height="758" fill="#ffffff"/>
<text x="20" y="38" font-size="15" font-weight="700" fill="#1e3a8a">food_order_db</text>
<text x="20" y="52" font-size="10.5" fill="#64748b">order-service (:8083) · key columns shown</text>
<path d="M336,305.0 H377.0 V152.0 H418" stroke="#475569" stroke-width="1.3" fill="none"/>
<line x1="328" y1="299.0" x2="328" y2="311.0" stroke="#475569" stroke-width="1.3"/>
<path d="M430,152.0 L418,146.0 M430,152.0 L418,152.0 M430,152.0 L418,158.0" stroke="#475569" stroke-width="1.3" fill="none"/>
<path d="M336,305.0 H377.0 V365.0 H418" stroke="#475569" stroke-width="1.3" fill="none"/>
<line x1="328" y1="299.0" x2="328" y2="311.0" stroke="#475569" stroke-width="1.3"/>
<path d="M430,365.0 L418,359.0 M430,365.0 L418,365.0 M430,365.0 L418,371.0" stroke="#475569" stroke-width="1.3" fill="none"/>
<path d="M336,305.0 H377.0 V596.0 H418" stroke="#475569" stroke-width="1.3" fill="none"/>
<line x1="328" y1="299.0" x2="328" y2="311.0" stroke="#475569" stroke-width="1.3"/>
<path d="M430,596.0 L418,590.0 M430,596.0 L418,596.0 M430,596.0 L418,602.0" stroke="#475569" stroke-width="1.3" fill="none"/>
<path d="M773,179.0 H900.5 V410.0 H1028" stroke="#475569" stroke-width="1.3" fill="none"/>
<line x1="781" y1="173.0" x2="781" y2="185.0" stroke="#475569" stroke-width="1.3"/>
<path d="M1016,410.0 L1028,404.0 M1016,410.0 L1028,410.0 M1016,410.0 L1028,416.0" stroke="#475569" stroke-width="1.3" fill="none"/>
<rect x="20" y="54" width="316" height="502" rx="7" fill="#ffffff" stroke="#2563eb" stroke-width="1.3"/>
<rect x="20" y="54" width="316" height="26" rx="7" fill="#dbeafe" stroke="#2563eb" stroke-width="1.3"/>
<rect x="20" y="73" width="316" height="7" fill="#dbeafe"/>
<line x1="20" y1="80" x2="336" y2="80" stroke="#2563eb" stroke-width="1.1"/>
<text x="30" y="72" font-size="12.5" font-weight="700" fill="#1e3a8a">orders</text>
<text x="30" y="93" font-size="8.5" font-weight="700" fill="#b45309">PK</text>
<text x="50" y="93" font-size="11" fill="#1f2937">id</text>
<text x="326" y="93" font-size="9.5" fill="#94a3b8" text-anchor="end">UUID</text>
<text x="50" y="111" font-size="11" fill="#1f2937">order_number</text>
<text x="326" y="111" font-size="9.5" fill="#94a3b8" text-anchor="end">BER-2024-00123</text>
<text x="50" y="129" font-size="11" fill="#1f2937">customer_id</text>
<text x="326" y="129" font-size="9.5" fill="#94a3b8" text-anchor="end">→ auth.users</text>
<text x="50" y="147" font-size="11" fill="#1f2937">customer_name/phone/email</text>
<text x="326" y="147" font-size="9.5" fill="#94a3b8" text-anchor="end">varchar</text>
<text x="50" y="165" font-size="11" fill="#1f2937">restaurant_id</text>
<text x="326" y="165" font-size="9.5" fill="#94a3b8" text-anchor="end">→ restaurant.restaurants</text>
<text x="50" y="183" font-size="11" fill="#1f2937">restaurant_name</text>
<text x="326" y="183" font-size="9.5" fill="#94a3b8" text-anchor="end">denorm</text>
<text x="50" y="201" font-size="11" fill="#1f2937">order_type</text>
<text x="326" y="201" font-size="9.5" fill="#94a3b8" text-anchor="end">DELIVERY|TAKEAWAY|DINE_IN</text>
<text x="50" y="219" font-size="11" fill="#1f2937">status</text>
<text x="326" y="219" font-size="9.5" fill="#94a3b8" text-anchor="end">enum PENDING…DELIVERED</text>
<text x="50" y="237" font-size="11" fill="#1f2937">delivery_street/city/postal</text>
<text x="326" y="237" font-size="9.5" fill="#94a3b8" text-anchor="end">varchar</text>
<text x="50" y="255" font-size="11" fill="#1f2937">delivery_lat/lng</text>
<text x="326" y="255" font-size="9.5" fill="#94a3b8" text-anchor="end">double</text>
<text x="50" y="273" font-size="11" fill="#1f2937">table_number</text>
<text x="326" y="273" font-size="9.5" fill="#94a3b8" text-anchor="end">varchar</text>
<text x="50" y="291" font-size="11" fill="#1f2937">subtotal / delivery_fee</text>
<text x="326" y="291" font-size="9.5" fill="#94a3b8" text-anchor="end">numeric</text>
<text x="50" y="309" font-size="11" fill="#1f2937">discount / total</text>
<text x="326" y="309" font-size="9.5" fill="#94a3b8" text-anchor="end">numeric</text>
<text x="50" y="327" font-size="11" fill="#1f2937">tip_amount / tax_amount</text>
<text x="326" y="327" font-size="9.5" fill="#94a3b8" text-anchor="end">numeric</text>
<text x="50" y="345" font-size="11" fill="#1f2937">payment_status</text>
<text x="326" y="345" font-size="9.5" fill="#94a3b8" text-anchor="end">PENDING|PAID|FAILED|REFUNDED</text>
<text x="50" y="363" font-size="11" fill="#1f2937">payment_method</text>
<text x="326" y="363" font-size="9.5" fill="#94a3b8" text-anchor="end">enum</text>
<text x="50" y="381" font-size="11" fill="#1f2937">payment_intent_id</text>
<text x="326" y="381" font-size="9.5" fill="#94a3b8" text-anchor="end">varchar</text>
<text x="50" y="399" font-size="11" fill="#1f2937">loyalty_points_earned</text>
<text x="326" y="399" font-size="9.5" fill="#94a3b8" text-anchor="end">int</text>
<text x="50" y="417" font-size="11" fill="#1f2937">loyalty_points_redeemed</text>
<text x="326" y="417" font-size="9.5" fill="#94a3b8" text-anchor="end">int</text>
<text x="50" y="435" font-size="11" fill="#1f2937">promo_code</text>
<text x="326" y="435" font-size="9.5" fill="#94a3b8" text-anchor="end">varchar</text>
<text x="50" y="453" font-size="11" fill="#1f2937">driver_id</text>
<text x="326" y="453" font-size="9.5" fill="#94a3b8" text-anchor="end">→ delivery.drivers</text>
<text x="50" y="471" font-size="11" fill="#1f2937">driver_name</text>
<text x="326" y="471" font-size="9.5" fill="#94a3b8" text-anchor="end">denorm</text>
<text x="50" y="489" font-size="11" fill="#1f2937">accepted/prepared/picked_up_at</text>
<text x="326" y="489" font-size="9.5" fill="#94a3b8" text-anchor="end">timestamp</text>
<text x="50" y="507" font-size="11" fill="#1f2937">delivered/cancelled/refunded_at</text>
<text x="326" y="507" font-size="9.5" fill="#94a3b8" text-anchor="end">timestamp</text>
<text x="50" y="525" font-size="11" fill="#1f2937">cancellation_reason</text>
<text x="326" y="525" font-size="9.5" fill="#94a3b8" text-anchor="end">varchar</text>
<text x="50" y="543" font-size="11" fill="#1f2937">created_at / updated_at</text>
<text x="326" y="543" font-size="9.5" fill="#94a3b8" text-anchor="end">timestamp</text>
<rect x="418" y="54" width="273" height="196" rx="7" fill="#ffffff" stroke="#2563eb" stroke-width="1.3"/>
<rect x="418" y="54" width="273" height="26" rx="7" fill="#dbeafe" stroke="#2563eb" stroke-width="1.3"/>
<rect x="418" y="73" width="273" height="7" fill="#dbeafe"/>
<line x1="418" y1="80" x2="691" y2="80" stroke="#2563eb" stroke-width="1.1"/>
<text x="428" y="72" font-size="12.5" font-weight="700" fill="#1e3a8a">order_items</text>
<text x="428" y="93" font-size="8.5" font-weight="700" fill="#b45309">PK</text>
<text x="448" y="93" font-size="11" fill="#1f2937">id</text>
<text x="681" y="93" font-size="9.5" fill="#94a3b8" text-anchor="end">UUID</text>
<text x="428" y="111" font-size="8.5" font-weight="700" fill="#0e7490">FK</text>
<text x="448" y="111" font-size="11" fill="#1f2937">order_id</text>
<text x="681" y="111" font-size="9.5" fill="#94a3b8" text-anchor="end">→ orders</text>
<text x="448" y="129" font-size="11" fill="#1f2937">menu_item_id</text>
<text x="681" y="129" font-size="9.5" fill="#94a3b8" text-anchor="end">→ restaurant.menu_items</text>
<text x="448" y="147" font-size="11" fill="#1f2937">name</text>
<text x="681" y="147" font-size="9.5" fill="#94a3b8" text-anchor="end">denorm</text>
<text x="448" y="165" font-size="11" fill="#1f2937">quantity</text>
<text x="681" y="165" font-size="9.5" fill="#94a3b8" text-anchor="end">int</text>
<text x="448" y="183" font-size="11" fill="#1f2937">unit_price / total_price</text>
<text x="681" y="183" font-size="9.5" fill="#94a3b8" text-anchor="end">numeric</text>
<text x="448" y="201" font-size="11" fill="#1f2937">modifiers</text>
<text x="681" y="201" font-size="9.5" fill="#94a3b8" text-anchor="end">text</text>
<text x="448" y="219" font-size="11" fill="#1f2937">special_request</text>
<text x="681" y="219" font-size="9.5" fill="#94a3b8" text-anchor="end">varchar</text>
<text x="448" y="237" font-size="11" fill="#1f2937">refunded</text>
<text x="681" y="237" font-size="9.5" fill="#94a3b8" text-anchor="end">bool</text>
<rect x="418" y="276" width="243" height="178" rx="7" fill="#ffffff" stroke="#2563eb" stroke-width="1.3"/>
<rect x="418" y="276" width="243" height="26" rx="7" fill="#dbeafe" stroke="#2563eb" stroke-width="1.3"/>
<rect x="418" y="295" width="243" height="7" fill="#dbeafe"/>
<line x1="418" y1="302" x2="661" y2="302" stroke="#2563eb" stroke-width="1.1"/>
<text x="428" y="294" font-size="12.5" font-weight="700" fill="#1e3a8a">order_status_history</text>
<text x="428" y="315" font-size="8.5" font-weight="700" fill="#b45309">PK</text>
<text x="448" y="315" font-size="11" fill="#1f2937">id</text>
<text x="651" y="315" font-size="9.5" fill="#94a3b8" text-anchor="end">UUID</text>
<text x="428" y="333" font-size="8.5" font-weight="700" fill="#0e7490">FK</text>
<text x="448" y="333" font-size="11" fill="#1f2937">order_id</text>
<text x="651" y="333" font-size="9.5" fill="#94a3b8" text-anchor="end">→ orders</text>
<text x="448" y="351" font-size="11" fill="#1f2937">old_status / new_status</text>
<text x="651" y="351" font-size="9.5" fill="#94a3b8" text-anchor="end">enum</text>
<text x="448" y="369" font-size="11" fill="#1f2937">changed_by</text>
<text x="651" y="369" font-size="9.5" fill="#94a3b8" text-anchor="end">UUID</text>
<text x="448" y="387" font-size="11" fill="#1f2937">actor_type</text>
<text x="651" y="387" font-size="9.5" fill="#94a3b8" text-anchor="end">CUSTOMER|RESTAURANT|</text>
<text x="448" y="405" font-size="11" fill="#1f2937"></text>
<text x="651" y="405" font-size="9.5" fill="#94a3b8" text-anchor="end">DRIVER|SYSTEM</text>
<text x="448" y="423" font-size="11" fill="#1f2937">reason</text>
<text x="651" y="423" font-size="9.5" fill="#94a3b8" text-anchor="end">varchar</text>
<text x="448" y="441" font-size="11" fill="#1f2937">changed_at</text>
<text x="651" y="441" font-size="9.5" fill="#94a3b8" text-anchor="end">timestamp</text>
<rect x="418" y="480" width="210" height="232" rx="7" fill="#ffffff" stroke="#2563eb" stroke-width="1.3"/>
<rect x="418" y="480" width="210" height="26" rx="7" fill="#dbeafe" stroke="#2563eb" stroke-width="1.3"/>
<rect x="418" y="499" width="210" height="7" fill="#dbeafe"/>
<line x1="418" y1="506" x2="628" y2="506" stroke="#2563eb" stroke-width="1.1"/>
<text x="428" y="498" font-size="12.5" font-weight="700" fill="#1e3a8a">refund_requests</text>
<text x="428" y="519" font-size="8.5" font-weight="700" fill="#b45309">PK</text>
<text x="448" y="519" font-size="11" fill="#1f2937">id</text>
<text x="618" y="519" font-size="9.5" fill="#94a3b8" text-anchor="end">UUID</text>
<text x="448" y="537" font-size="11" fill="#1f2937">order_id</text>
<text x="618" y="537" font-size="9.5" fill="#94a3b8" text-anchor="end">→ orders</text>
<text x="448" y="555" font-size="11" fill="#1f2937">customer_id</text>
<text x="618" y="555" font-size="9.5" fill="#94a3b8" text-anchor="end">→ auth.users</text>
<text x="448" y="573" font-size="11" fill="#1f2937">reason</text>
<text x="618" y="573" font-size="9.5" fill="#94a3b8" text-anchor="end">enum WRONG_ITEM|…</text>
<text x="448" y="591" font-size="11" fill="#1f2937">description</text>
<text x="618" y="591" font-size="9.5" fill="#94a3b8" text-anchor="end">varchar</text>
<text x="448" y="609" font-size="11" fill="#1f2937">requested_amount</text>
<text x="618" y="609" font-size="9.5" fill="#94a3b8" text-anchor="end">numeric</text>
<text x="448" y="627" font-size="11" fill="#1f2937">status</text>
<text x="618" y="627" font-size="9.5" fill="#94a3b8" text-anchor="end">PENDING|APPROVED|…</text>
<text x="448" y="645" font-size="11" fill="#1f2937">reviewed_by</text>
<text x="618" y="645" font-size="9.5" fill="#94a3b8" text-anchor="end">UUID</text>
<text x="448" y="663" font-size="11" fill="#1f2937">approved_amount</text>
<text x="618" y="663" font-size="9.5" fill="#94a3b8" text-anchor="end">numeric</text>
<text x="448" y="681" font-size="11" fill="#1f2937">rejection_reason</text>
<text x="618" y="681" font-size="9.5" fill="#94a3b8" text-anchor="end">varchar</text>
<text x="428" y="699" font-size="8.8" font-style="italic" fill="#b0b8c4">+ created_at · updated_at</text>
<rect x="773" y="54" width="267" height="250" rx="7" fill="#ffffff" stroke="#2563eb" stroke-width="1.3"/>
<rect x="773" y="54" width="267" height="26" rx="7" fill="#dbeafe" stroke="#2563eb" stroke-width="1.3"/>
<rect x="773" y="73" width="267" height="7" fill="#dbeafe"/>
<line x1="773" y1="80" x2="1040" y2="80" stroke="#2563eb" stroke-width="1.1"/>
<text x="783" y="72" font-size="12.5" font-weight="700" fill="#1e3a8a">promotions</text>
<text x="783" y="93" font-size="8.5" font-weight="700" fill="#b45309">PK</text>
<text x="803" y="93" font-size="11" fill="#1f2937">id</text>
<text x="1030" y="93" font-size="9.5" fill="#94a3b8" text-anchor="end">UUID</text>
<text x="783" y="111" font-size="8.5" font-weight="700" fill="#7c3aed">UQ</text>
<text x="803" y="111" font-size="11" fill="#1f2937">code</text>
<text x="1030" y="111" font-size="9.5" fill="#94a3b8" text-anchor="end">varchar</text>
<text x="803" y="129" font-size="11" fill="#1f2937">name / description</text>
<text x="1030" y="129" font-size="9.5" fill="#94a3b8" text-anchor="end">varchar</text>
<text x="803" y="147" font-size="11" fill="#1f2937">type</text>
<text x="1030" y="147" font-size="9.5" fill="#94a3b8" text-anchor="end">PERCENTAGE|FIXED|FREE_DELIVERY</text>
<text x="803" y="165" font-size="11" fill="#1f2937">value</text>
<text x="1030" y="165" font-size="9.5" fill="#94a3b8" text-anchor="end">numeric</text>
<text x="803" y="183" font-size="11" fill="#1f2937">min_order_amount</text>
<text x="1030" y="183" font-size="9.5" fill="#94a3b8" text-anchor="end">numeric</text>
<text x="803" y="201" font-size="11" fill="#1f2937">max_discount</text>
<text x="1030" y="201" font-size="9.5" fill="#94a3b8" text-anchor="end">numeric</text>
<text x="803" y="219" font-size="11" fill="#1f2937">restaurant_id</text>
<text x="1030" y="219" font-size="9.5" fill="#94a3b8" text-anchor="end">ref (optional)</text>
<text x="803" y="237" font-size="11" fill="#1f2937">valid_from / valid_until</text>
<text x="1030" y="237" font-size="9.5" fill="#94a3b8" text-anchor="end">timestamp</text>
<text x="803" y="255" font-size="11" fill="#1f2937">usage_limit / used_count</text>
<text x="1030" y="255" font-size="9.5" fill="#94a3b8" text-anchor="end">int</text>
<text x="803" y="273" font-size="11" fill="#1f2937">max_uses_per_user</text>
<text x="1030" y="273" font-size="9.5" fill="#94a3b8" text-anchor="end">int</text>
<text x="803" y="291" font-size="11" fill="#1f2937">active</text>
<text x="1030" y="291" font-size="9.5" fill="#94a3b8" text-anchor="end">bool</text>
<rect x="773" y="330" width="255" height="160" rx="7" fill="#ffffff" stroke="#2563eb" stroke-width="1.3"/>
<rect x="773" y="330" width="255" height="26" rx="7" fill="#dbeafe" stroke="#2563eb" stroke-width="1.3"/>
<rect x="773" y="349" width="255" height="7" fill="#dbeafe"/>
<line x1="773" y1="356" x2="1028" y2="356" stroke="#2563eb" stroke-width="1.1"/>
<text x="783" y="348" font-size="12.5" font-weight="700" fill="#1e3a8a">promo_usages</text>
<text x="783" y="369" font-size="8.5" font-weight="700" fill="#b45309">PK</text>
<text x="803" y="369" font-size="11" fill="#1f2937">id</text>
<text x="1018" y="369" font-size="9.5" fill="#94a3b8" text-anchor="end">UUID</text>
<text x="803" y="387" font-size="11" fill="#1f2937">promotion_id</text>
<text x="1018" y="387" font-size="9.5" fill="#94a3b8" text-anchor="end">→ promotions</text>
<text x="803" y="405" font-size="11" fill="#1f2937">customer_id</text>
<text x="1018" y="405" font-size="9.5" fill="#94a3b8" text-anchor="end">UUID</text>
<text x="803" y="423" font-size="11" fill="#1f2937">order_id</text>
<text x="1018" y="423" font-size="9.5" fill="#94a3b8" text-anchor="end">UUID</text>
<text x="783" y="441" font-size="8.5" font-weight="700" fill="#7c3aed">UQ</text>
<text x="803" y="441" font-size="11" fill="#1f2937">(promotion_id, order_id)</text>
<text x="1018" y="441" font-size="9.5" fill="#94a3b8" text-anchor="end">unique</text>
<text x="803" y="459" font-size="11" fill="#1f2937">discount_applied</text>
<text x="1018" y="459" font-size="9.5" fill="#94a3b8" text-anchor="end">numeric</text>
<text x="803" y="477" font-size="11" fill="#1f2937">used_at</text>
<text x="1018" y="477" font-size="9.5" fill="#94a3b8" text-anchor="end">timestamp</text>
<rect x="773" y="516" width="210" height="160" rx="7" fill="#ffffff" stroke="#2563eb" stroke-width="1.3"/>
<rect x="773" y="516" width="210" height="26" rx="7" fill="#dbeafe" stroke="#2563eb" stroke-width="1.3"/>
<rect x="773" y="535" width="210" height="7" fill="#dbeafe"/>
<line x1="773" y1="542" x2="983" y2="542" stroke="#2563eb" stroke-width="1.1"/>
<text x="783" y="534" font-size="12.5" font-weight="700" fill="#1e3a8a">outbox_events</text>
<text x="783" y="555" font-size="8.5" font-weight="700" fill="#b45309">PK</text>
<text x="803" y="555" font-size="11" fill="#1f2937">id</text>
<text x="973" y="555" font-size="9.5" fill="#94a3b8" text-anchor="end">UUID</text>
<text x="803" y="573" font-size="11" fill="#1f2937">topic</text>
<text x="973" y="573" font-size="9.5" fill="#94a3b8" text-anchor="end">varchar</text>
<text x="803" y="591" font-size="11" fill="#1f2937">payload</text>
<text x="973" y="591" font-size="9.5" fill="#94a3b8" text-anchor="end">jsonb</text>
<text x="803" y="609" font-size="11" fill="#1f2937">sent</text>
<text x="973" y="609" font-size="9.5" fill="#94a3b8" text-anchor="end">bool</text>
<text x="803" y="627" font-size="11" fill="#1f2937">retry_count</text>
<text x="973" y="627" font-size="9.5" fill="#94a3b8" text-anchor="end">int</text>
<text x="803" y="645" font-size="11" fill="#1f2937">sent_at</text>
<text x="973" y="645" font-size="9.5" fill="#94a3b8" text-anchor="end">timestamp</text>
<text x="803" y="663" font-size="11" fill="#1f2937">last_error</text>
<text x="973" y="663" font-size="9.5" fill="#94a3b8" text-anchor="end">text</text>
</svg>