<svg viewBox="0 0 644 260" xmlns="http://www.w3.org/2000/svg" font-family="Segoe UI, Helvetica, Arial, sans-serif">
<rect x="0" y="0" width="644" height="260" fill="#ffffff"/>
<text x="20" y="38" font-size="15" font-weight="700" fill="#312e81">food_loyalty_db</text>
<text x="20" y="52" font-size="10.5" fill="#64748b">loyalty-service (:8086) · key columns shown</text>
<path d="M281,125.0 H322.0 V134.0 H363" stroke="#475569" stroke-width="1.3" fill="none"/>
<line x1="273" y1="119.0" x2="273" y2="131.0" stroke="#475569" stroke-width="1.3"/>
<path d="M375,134.0 L363,128.0 M375,134.0 L363,134.0 M375,134.0 L363,140.0" stroke="#475569" stroke-width="1.3" fill="none"/>
<rect x="20" y="54" width="261" height="142" rx="7" fill="#ffffff" stroke="#4f46e5" stroke-width="1.3"/>
<rect x="20" y="54" width="261" height="26" rx="7" fill="#e0e7ff" stroke="#4f46e5" stroke-width="1.3"/>
<rect x="20" y="73" width="261" height="7" fill="#e0e7ff"/>
<line x1="20" y1="80" x2="281" y2="80" stroke="#4f46e5" stroke-width="1.1"/>
<text x="30" y="72" font-size="12.5" font-weight="700" fill="#312e81">loyalty_accounts</text>
<text x="30" y="93" font-size="8.5" font-weight="700" fill="#b45309">PK</text>
<text x="50" y="93" font-size="11" fill="#1f2937">id</text>
<text x="271" y="93" font-size="9.5" fill="#94a3b8" text-anchor="end">UUID</text>
<text x="30" y="111" font-size="8.5" font-weight="700" fill="#7c3aed">UQ</text>
<text x="50" y="111" font-size="11" fill="#1f2937">customer_id</text>
<text x="271" y="111" font-size="9.5" fill="#94a3b8" text-anchor="end">→ customer.customers</text>
<text x="50" y="129" font-size="11" fill="#1f2937">total_points</text>
<text x="271" y="129" font-size="9.5" fill="#94a3b8" text-anchor="end">int</text>
<text x="50" y="147" font-size="11" fill="#1f2937">lifetime_points</text>
<text x="271" y="147" font-size="9.5" fill="#94a3b8" text-anchor="end">int</text>
<text x="50" y="165" font-size="11" fill="#1f2937">tier</text>
<text x="271" y="165" font-size="9.5" fill="#94a3b8" text-anchor="end">BRONZE|SILVER|GOLD|PLATINUM</text>
<text x="50" y="183" font-size="11" fill="#1f2937">updated_at</text>
<text x="271" y="183" font-size="9.5" fill="#94a3b8" text-anchor="end">timestamp</text>
<rect x="363" y="54" width="261" height="160" rx="7" fill="#ffffff" stroke="#4f46e5" stroke-width="1.3"/>
<rect x="363" y="54" width="261" height="26" rx="7" fill="#e0e7ff" stroke="#4f46e5" stroke-width="1.3"/>
<rect x="363" y="73" width="261" height="7" fill="#e0e7ff"/>
<line x1="363" y1="80" x2="624" y2="80" stroke="#4f46e5" stroke-width="1.1"/>
<text x="373" y="72" font-size="12.5" font-weight="700" fill="#312e81">loyalty_transactions</text>
<text x="373" y="93" font-size="8.5" font-weight="700" fill="#b45309">PK</text>
<text x="393" y="93" font-size="11" fill="#1f2937">id</text>
<text x="614" y="93" font-size="9.5" fill="#94a3b8" text-anchor="end">UUID</text>
<text x="373" y="111" font-size="8.5" font-weight="700" fill="#0e7490">FK</text>
<text x="393" y="111" font-size="11" fill="#1f2937">account_id</text>
<text x="614" y="111" font-size="9.5" fill="#94a3b8" text-anchor="end">→ loyalty_accounts</text>
<text x="393" y="129" font-size="11" fill="#1f2937">type</text>
<text x="614" y="129" font-size="9.5" fill="#94a3b8" text-anchor="end">EARNED|REDEEMED|EXPIRED|BONUS</text>
<text x="393" y="147" font-size="11" fill="#1f2937">points</text>
<text x="614" y="147" font-size="9.5" fill="#94a3b8" text-anchor="end">int</text>
<text x="393" y="165" font-size="11" fill="#1f2937">order_id</text>
<text x="614" y="165" font-size="9.5" fill="#94a3b8" text-anchor="end">UUID</text>
<text x="393" y="183" font-size="11" fill="#1f2937">description</text>
<text x="614" y="183" font-size="9.5" fill="#94a3b8" text-anchor="end">varchar</text>
<text x="393" y="201" font-size="11" fill="#1f2937">created_at</text>
<text x="614" y="201" font-size="9.5" fill="#94a3b8" text-anchor="end">timestamp</text>
</svg>