<svg viewBox="0 0 1123 554" xmlns="http://www.w3.org/2000/svg" font-family="Segoe UI, Helvetica, Arial, sans-serif">
<rect x="0" y="0" width="1123" height="554" fill="#ffffff"/>
<text x="20" y="38" font-size="15" font-weight="700" fill="#7c2d12">food_delivery_db</text>
<text x="20" y="52" font-size="10.5" fill="#64748b">delivery-service (:8085) · key columns shown</text>
<path d="M349,215.0 H390.0 V179.0 H431" stroke="#475569" stroke-width="1.3" fill="none"/>
<line x1="341" y1="209.0" x2="341" y2="221.0" stroke="#475569" stroke-width="1.3"/>
<path d="M443,179.0 L431,173.0 M443,179.0 L431,179.0 M443,179.0 L431,185.0" stroke="#475569" stroke-width="1.3" fill="none"/>
<path d="M349,215.0 H577.0 V134.0 H805" stroke="#475569" stroke-width="1.3" fill="none"/>
<line x1="341" y1="209.0" x2="341" y2="221.0" stroke="#475569" stroke-width="1.3"/>
<path d="M817,134.0 L805,128.0 M817,134.0 L805,134.0 M817,134.0 L805,140.0" stroke="#475569" stroke-width="1.3" fill="none"/>
<path d="M723,179.0 H764.0 V134.0 H805" stroke="#475569" stroke-width="1.3" fill="none"/>
<line x1="715" y1="173.0" x2="715" y2="185.0" stroke="#475569" stroke-width="1.3"/>
<path d="M817,134.0 L805,128.0 M817,134.0 L805,134.0 M817,134.0 L805,140.0" stroke="#475569" stroke-width="1.3" fill="none"/>
<rect x="20" y="54" width="329" height="322" rx="7" fill="#ffffff" stroke="#ea580c" stroke-width="1.3"/>
<rect x="20" y="54" width="329" height="26" rx="7" fill="#ffedd5" stroke="#ea580c" stroke-width="1.3"/>
<rect x="20" y="73" width="329" height="7" fill="#ffedd5"/>
<line x1="20" y1="80" x2="349" y2="80" stroke="#ea580c" stroke-width="1.1"/>
<text x="30" y="72" font-size="12.5" font-weight="700" fill="#7c2d12">drivers</text>
<text x="30" y="93" font-size="8.5" font-weight="700" fill="#b45309">PK</text>
<text x="50" y="93" font-size="11" fill="#1f2937">id</text>
<text x="339" y="93" font-size="9.5" fill="#94a3b8" text-anchor="end">UUID</text>
<text x="50" y="111" font-size="11" fill="#1f2937">user_id</text>
<text x="339" y="111" font-size="9.5" fill="#94a3b8" text-anchor="end">→ auth.users</text>
<text x="50" y="129" font-size="11" fill="#1f2937">first_name / last_name / name</text>
<text x="339" y="129" font-size="9.5" fill="#94a3b8" text-anchor="end">varchar</text>
<text x="50" y="147" font-size="11" fill="#1f2937">email / phone</text>
<text x="339" y="147" font-size="9.5" fill="#94a3b8" text-anchor="end">varchar</text>
<text x="50" y="165" font-size="11" fill="#1f2937">profile_photo_url</text>
<text x="339" y="165" font-size="9.5" fill="#94a3b8" text-anchor="end">varchar</text>
<text x="50" y="183" font-size="11" fill="#1f2937">vehicle_type</text>
<text x="339" y="183" font-size="9.5" fill="#94a3b8" text-anchor="end">BICYCLE|MOTORCYCLE|CAR</text>
<text x="50" y="201" font-size="11" fill="#1f2937">vehicle_plate / model</text>
<text x="339" y="201" font-size="9.5" fill="#94a3b8" text-anchor="end">varchar</text>
<text x="50" y="219" font-size="11" fill="#1f2937">license_number</text>
<text x="339" y="219" font-size="9.5" fill="#94a3b8" text-anchor="end">varchar</text>
<text x="50" y="237" font-size="11" fill="#1f2937">current_latitude / longitude</text>
<text x="339" y="237" font-size="9.5" fill="#94a3b8" text-anchor="end">double</text>
<text x="50" y="255" font-size="11" fill="#1f2937">location_updated_at</text>
<text x="339" y="255" font-size="9.5" fill="#94a3b8" text-anchor="end">timestamp</text>
<text x="50" y="273" font-size="11" fill="#1f2937">status</text>
<text x="339" y="273" font-size="9.5" fill="#94a3b8" text-anchor="end">OFFLINE|AVAILABLE|ON_DELIVERY|ON_BREAK</text>
<text x="50" y="291" font-size="11" fill="#1f2937">total_earnings</text>
<text x="339" y="291" font-size="9.5" fill="#94a3b8" text-anchor="end">double</text>
<text x="50" y="309" font-size="11" fill="#1f2937">total_deliveries</text>
<text x="339" y="309" font-size="9.5" fill="#94a3b8" text-anchor="end">int</text>
<text x="50" y="327" font-size="11" fill="#1f2937">rating</text>
<text x="339" y="327" font-size="9.5" fill="#94a3b8" text-anchor="end">double</text>
<text x="50" y="345" font-size="11" fill="#1f2937">active</text>
<text x="339" y="345" font-size="9.5" fill="#94a3b8" text-anchor="end">bool</text>
<text x="30" y="363" font-size="8.8" font-style="italic" fill="#b0b8c4">+ created_at · updated_at</text>
<rect x="431" y="54" width="292" height="250" rx="7" fill="#ffffff" stroke="#ea580c" stroke-width="1.3"/>
<rect x="431" y="54" width="292" height="26" rx="7" fill="#ffedd5" stroke="#ea580c" stroke-width="1.3"/>
<rect x="431" y="73" width="292" height="7" fill="#ffedd5"/>
<line x1="431" y1="80" x2="723" y2="80" stroke="#ea580c" stroke-width="1.1"/>
<text x="441" y="72" font-size="12.5" font-weight="700" fill="#7c2d12">driver_deliveries</text>
<text x="441" y="93" font-size="8.5" font-weight="700" fill="#b45309">PK</text>
<text x="461" y="93" font-size="11" fill="#1f2937">id</text>
<text x="713" y="93" font-size="9.5" fill="#94a3b8" text-anchor="end">UUID</text>
<text x="461" y="111" font-size="11" fill="#1f2937">driver_id</text>
<text x="713" y="111" font-size="9.5" fill="#94a3b8" text-anchor="end">→ drivers</text>
<text x="461" y="129" font-size="11" fill="#1f2937">order_id</text>
<text x="713" y="129" font-size="9.5" fill="#94a3b8" text-anchor="end">→ order.orders</text>
<text x="461" y="147" font-size="11" fill="#1f2937">order_number</text>
<text x="713" y="147" font-size="9.5" fill="#94a3b8" text-anchor="end">denorm</text>
<text x="461" y="165" font-size="11" fill="#1f2937">restaurant_name</text>
<text x="713" y="165" font-size="9.5" fill="#94a3b8" text-anchor="end">denorm</text>
<text x="461" y="183" font-size="11" fill="#1f2937">delivery_address</text>
<text x="713" y="183" font-size="9.5" fill="#94a3b8" text-anchor="end">denorm</text>
<text x="461" y="201" font-size="11" fill="#1f2937">order_total</text>
<text x="713" y="201" font-size="9.5" fill="#94a3b8" text-anchor="end">numeric</text>
<text x="461" y="219" font-size="11" fill="#1f2937">earnings</text>
<text x="713" y="219" font-size="9.5" fill="#94a3b8" text-anchor="end">numeric</text>
<text x="461" y="237" font-size="11" fill="#1f2937">status</text>
<text x="713" y="237" font-size="9.5" fill="#94a3b8" text-anchor="end">ACCEPTED|ARRIVED_PICKUP|</text>
<text x="461" y="255" font-size="11" fill="#1f2937"></text>
<text x="713" y="255" font-size="9.5" fill="#94a3b8" text-anchor="end">PICKED_UP|DELIVERED|CANCELLED</text>
<text x="461" y="273" font-size="11" fill="#1f2937">accepted/arrived/picked_up_at</text>
<text x="713" y="273" font-size="9.5" fill="#94a3b8" text-anchor="end">timestamp</text>
<text x="461" y="291" font-size="11" fill="#1f2937">delivered_at</text>
<text x="713" y="291" font-size="9.5" fill="#94a3b8" text-anchor="end">timestamp</text>
<rect x="431" y="330" width="286" height="178" rx="7" fill="#ffffff" stroke="#ea580c" stroke-width="1.3"/>
<rect x="431" y="330" width="286" height="26" rx="7" fill="#ffedd5" stroke="#ea580c" stroke-width="1.3"/>
<rect x="431" y="349" width="286" height="7" fill="#ffedd5"/>
<line x1="431" y1="356" x2="717" y2="356" stroke="#ea580c" stroke-width="1.1"/>
<text x="441" y="348" font-size="12.5" font-weight="700" fill="#7c2d12">delivery_zones</text>
<text x="441" y="369" font-size="8.5" font-weight="700" fill="#b45309">PK</text>
<text x="461" y="369" font-size="11" fill="#1f2937">id</text>
<text x="707" y="369" font-size="9.5" fill="#94a3b8" text-anchor="end">UUID</text>
<text x="461" y="387" font-size="11" fill="#1f2937">restaurant_id</text>
<text x="707" y="387" font-size="9.5" fill="#94a3b8" text-anchor="end">→ restaurant.restaurants</text>
<text x="461" y="405" font-size="11" fill="#1f2937">name</text>
<text x="707" y="405" font-size="9.5" fill="#94a3b8" text-anchor="end">varchar</text>
<text x="461" y="423" font-size="11" fill="#1f2937">postal_codes</text>
<text x="707" y="423" font-size="9.5" fill="#94a3b8" text-anchor="end">text</text>
<text x="461" y="441" font-size="11" fill="#1f2937">delivery_fee</text>
<text x="707" y="441" font-size="9.5" fill="#94a3b8" text-anchor="end">numeric</text>
<text x="461" y="459" font-size="11" fill="#1f2937">estimated_delivery_minutes</text>
<text x="707" y="459" font-size="9.5" fill="#94a3b8" text-anchor="end">int</text>
<text x="461" y="477" font-size="11" fill="#1f2937">minimum_order_amount</text>
<text x="707" y="477" font-size="9.5" fill="#94a3b8" text-anchor="end">numeric</text>
<text x="461" y="495" font-size="11" fill="#1f2937">active</text>
<text x="707" y="495" font-size="9.5" fill="#94a3b8" text-anchor="end">bool</text>
<rect x="805" y="54" width="298" height="160" rx="7" fill="#ffffff" stroke="#ea580c" stroke-width="1.3"/>
<rect x="805" y="54" width="298" height="26" rx="7" fill="#ffedd5" stroke="#ea580c" stroke-width="1.3"/>
<rect x="805" y="73" width="298" height="7" fill="#ffedd5"/>
<line x1="805" y1="80" x2="1103" y2="80" stroke="#ea580c" stroke-width="1.1"/>
<text x="815" y="72" font-size="12.5" font-weight="700" fill="#7c2d12">driver_ratings</text>
<text x="815" y="93" font-size="8.5" font-weight="700" fill="#b45309">PK</text>
<text x="835" y="93" font-size="11" fill="#1f2937">id</text>
<text x="1093" y="93" font-size="9.5" fill="#94a3b8" text-anchor="end">UUID</text>
<text x="835" y="111" font-size="11" fill="#1f2937">driver_id</text>
<text x="1093" y="111" font-size="9.5" fill="#94a3b8" text-anchor="end">→ drivers</text>
<text x="815" y="129" font-size="8.5" font-weight="700" fill="#0e7490">FK</text>
<text x="835" y="129" font-size="11" fill="#1f2937">driver_delivery_id</text>
<text x="1093" y="129" font-size="9.5" fill="#94a3b8" text-anchor="end">→ driver_deliveries</text>
<text x="835" y="147" font-size="11" fill="#1f2937">order_id / customer_id</text>
<text x="1093" y="147" font-size="9.5" fill="#94a3b8" text-anchor="end">UUID</text>
<text x="835" y="165" font-size="11" fill="#1f2937">rating</text>
<text x="1093" y="165" font-size="9.5" fill="#94a3b8" text-anchor="end">numeric(2,1)</text>
<text x="835" y="183" font-size="11" fill="#1f2937">comment</text>
<text x="1093" y="183" font-size="9.5" fill="#94a3b8" text-anchor="end">text</text>
<text x="835" y="201" font-size="11" fill="#1f2937">rated_at</text>
<text x="1093" y="201" font-size="9.5" fill="#94a3b8" text-anchor="end">timestamp</text>
</svg>