<svg viewBox="0 0 1293 686" xmlns="http://www.w3.org/2000/svg" font-family="Segoe UI, Helvetica, Arial, sans-serif">
<rect x="0" y="0" width="1293" height="686" fill="#ffffff"/>
<text x="20" y="38" font-size="15" font-weight="700" fill="#14532d">food_restaurant_db</text>
<text x="20" y="52" font-size="10.5" fill="#64748b">restaurant-service (:8082) · key columns shown</text>
<path d="M256,179.0 H297.0 V278.0 H338" stroke="#475569" stroke-width="1.3" fill="none"/>
<line x1="248" y1="173.0" x2="248" y2="185.0" stroke="#475569" stroke-width="1.3"/>
<path d="M350,278.0 L338,272.0 M350,278.0 L338,278.0 M350,278.0 L338,284.0" stroke="#475569" stroke-width="1.3" fill="none"/>
<path d="M605,278.0 H646.0 V143.0 H687" stroke="#475569" stroke-width="1.3" fill="none"/>
<line x1="597" y1="272.0" x2="597" y2="284.0" stroke="#475569" stroke-width="1.3"/>
<path d="M699,143.0 L687,137.0 M699,143.0 L687,143.0 M699,143.0 L687,149.0" stroke="#475569" stroke-width="1.3" fill="none"/>
<path d="M923,143.0 H973.5 V206.0 H1024" stroke="#475569" stroke-width="1.3" fill="none"/>
<line x1="915" y1="137.0" x2="915" y2="149.0" stroke="#475569" stroke-width="1.3"/>
<path d="M1036,206.0 L1024,200.0 M1036,206.0 L1024,206.0 M1036,206.0 L1024,212.0" stroke="#475569" stroke-width="1.3" fill="none"/>
<path d="M605,278.0 H646.0 V329.0 H687" stroke="#475569" stroke-width="1.3" fill="none"/>
<line x1="597" y1="272.0" x2="597" y2="284.0" stroke="#475569" stroke-width="1.3"/>
<path d="M699,329.0 L687,323.0 M699,329.0 L687,329.0 M699,329.0 L687,335.0" stroke="#475569" stroke-width="1.3" fill="none"/>
<path d="M605,278.0 H814.5 V491.0 H1024" stroke="#475569" stroke-width="1.3" fill="none"/>
<line x1="597" y1="272.0" x2="597" y2="284.0" stroke="#475569" stroke-width="1.3"/>
<path d="M1036,491.0 L1024,485.0 M1036,491.0 L1024,491.0 M1036,491.0 L1024,497.0" stroke="#475569" stroke-width="1.3" fill="none"/>
<path d="M605,278.0 H646.0 V533.0 H687" stroke="#475569" stroke-width="1.3" fill="none"/>
<line x1="597" y1="272.0" x2="597" y2="284.0" stroke="#475569" stroke-width="1.3"/>
<path d="M699,533.0 L687,527.0 M699,533.0 L687,533.0 M699,533.0 L687,539.0" stroke="#475569" stroke-width="1.3" fill="none"/>
<rect x="20" y="54" width="236" height="250" rx="7" fill="#ffffff" stroke="#16a34a" stroke-width="1.3"/>
<rect x="20" y="54" width="236" height="26" rx="7" fill="#dcfce7" stroke="#16a34a" stroke-width="1.3"/>
<rect x="20" y="73" width="236" height="7" fill="#dcfce7"/>
<line x1="20" y1="80" x2="256" y2="80" stroke="#16a34a" stroke-width="1.1"/>
<text x="30" y="72" font-size="12.5" font-weight="700" fill="#14532d">restaurant_owners</text>
<text x="30" y="93" font-size="8.5" font-weight="700" fill="#b45309">PK</text>
<text x="50" y="93" font-size="11" fill="#1f2937">id</text>
<text x="246" y="93" font-size="9.5" fill="#94a3b8" text-anchor="end">UUID</text>
<text x="30" y="111" font-size="8.5" font-weight="700" fill="#7c3aed">UQ</text>
<text x="50" y="111" font-size="11" fill="#1f2937">user_id</text>
<text x="246" y="111" font-size="9.5" fill="#94a3b8" text-anchor="end">→ auth.users</text>
<text x="50" y="129" font-size="11" fill="#1f2937">first_name / last_name</text>
<text x="246" y="129" font-size="9.5" fill="#94a3b8" text-anchor="end">varchar</text>
<text x="50" y="147" font-size="11" fill="#1f2937">email / phone</text>
<text x="246" y="147" font-size="9.5" fill="#94a3b8" text-anchor="end">varchar</text>
<text x="50" y="165" font-size="11" fill="#1f2937">business_name</text>
<text x="246" y="165" font-size="9.5" fill="#94a3b8" text-anchor="end">varchar</text>
<text x="50" y="183" font-size="11" fill="#1f2937">business_reg_number</text>
<text x="246" y="183" font-size="9.5" fill="#94a3b8" text-anchor="end">varchar</text>
<text x="50" y="201" font-size="11" fill="#1f2937">tax_id / iban</text>
<text x="246" y="201" font-size="9.5" fill="#94a3b8" text-anchor="end">varchar</text>
<text x="50" y="219" font-size="11" fill="#1f2937">business_address/city</text>
<text x="246" y="219" font-size="9.5" fill="#94a3b8" text-anchor="end">varchar</text>
<text x="50" y="237" font-size="11" fill="#1f2937">verified</text>
<text x="246" y="237" font-size="9.5" fill="#94a3b8" text-anchor="end">bool</text>
<text x="50" y="255" font-size="11" fill="#1f2937">active</text>
<text x="246" y="255" font-size="9.5" fill="#94a3b8" text-anchor="end">bool</text>
<text x="50" y="273" font-size="11" fill="#1f2937">is_deleted</text>
<text x="246" y="273" font-size="9.5" fill="#94a3b8" text-anchor="end">bool</text>
<text x="30" y="291" font-size="8.8" font-style="italic" fill="#b0b8c4">+ created_at · updated_at</text>
<rect x="338" y="54" width="267" height="448" rx="7" fill="#ffffff" stroke="#16a34a" stroke-width="1.3"/>
<rect x="338" y="54" width="267" height="26" rx="7" fill="#dcfce7" stroke="#16a34a" stroke-width="1.3"/>
<rect x="338" y="73" width="267" height="7" fill="#dcfce7"/>
<line x1="338" y1="80" x2="605" y2="80" stroke="#16a34a" stroke-width="1.1"/>
<text x="348" y="72" font-size="12.5" font-weight="700" fill="#14532d">restaurants</text>
<text x="348" y="93" font-size="8.5" font-weight="700" fill="#b45309">PK</text>
<text x="368" y="93" font-size="11" fill="#1f2937">id</text>
<text x="595" y="93" font-size="9.5" fill="#94a3b8" text-anchor="end">UUID</text>
<text x="368" y="111" font-size="11" fill="#1f2937">owner_id</text>
<text x="595" y="111" font-size="9.5" fill="#94a3b8" text-anchor="end">→ restaurant_owners</text>
<text x="368" y="129" font-size="11" fill="#1f2937">name / description</text>
<text x="595" y="129" font-size="9.5" fill="#94a3b8" text-anchor="end">varchar</text>
<text x="368" y="147" font-size="11" fill="#1f2937">description_en / _de</text>
<text x="595" y="147" font-size="9.5" fill="#94a3b8" text-anchor="end">varchar</text>
<text x="368" y="165" font-size="11" fill="#1f2937">brand_logo/colors/domain</text>
<text x="595" y="165" font-size="9.5" fill="#94a3b8" text-anchor="end">varchar</text>
<text x="368" y="183" font-size="11" fill="#1f2937">address/city/postal/country</text>
<text x="595" y="183" font-size="9.5" fill="#94a3b8" text-anchor="end">varchar</text>
<text x="368" y="201" font-size="11" fill="#1f2937">latitude / longitude</text>
<text x="595" y="201" font-size="9.5" fill="#94a3b8" text-anchor="end">double</text>
<text x="368" y="219" font-size="11" fill="#1f2937">cuisine_type</text>
<text x="595" y="219" font-size="9.5" fill="#94a3b8" text-anchor="end">varchar</text>
<text x="368" y="237" font-size="11" fill="#1f2937">food_type</text>
<text x="595" y="237" font-size="9.5" fill="#94a3b8" text-anchor="end">enum VEG|NON_VEG|…</text>
<text x="368" y="255" font-size="11" fill="#1f2937">tags</text>
<text x="595" y="255" font-size="9.5" fill="#94a3b8" text-anchor="end">collection</text>
<text x="368" y="273" font-size="11" fill="#1f2937">average_delivery_time</text>
<text x="595" y="273" font-size="9.5" fill="#94a3b8" text-anchor="end">int min</text>
<text x="368" y="291" font-size="11" fill="#1f2937">minimum_order_amount</text>
<text x="595" y="291" font-size="9.5" fill="#94a3b8" text-anchor="end">numeric</text>
<text x="368" y="309" font-size="11" fill="#1f2937">delivery_fee</text>
<text x="595" y="309" font-size="9.5" fill="#94a3b8" text-anchor="end">numeric</text>
<text x="368" y="327" font-size="11" fill="#1f2937">status</text>
<text x="595" y="327" font-size="9.5" fill="#94a3b8" text-anchor="end">enum</text>
<text x="368" y="345" font-size="11" fill="#1f2937">accepting_orders</text>
<text x="595" y="345" font-size="9.5" fill="#94a3b8" text-anchor="end">bool</text>
<text x="368" y="363" font-size="11" fill="#1f2937">delivery/takeaway/dinein</text>
<text x="595" y="363" font-size="9.5" fill="#94a3b8" text-anchor="end">bool</text>
<text x="368" y="381" font-size="11" fill="#1f2937">subscription_tier</text>
<text x="595" y="381" font-size="9.5" fill="#94a3b8" text-anchor="end">enum</text>
<text x="368" y="399" font-size="11" fill="#1f2937">opening_hours</text>
<text x="595" y="399" font-size="9.5" fill="#94a3b8" text-anchor="end">text</text>
<text x="368" y="417" font-size="11" fill="#1f2937">rating_average</text>
<text x="595" y="417" font-size="9.5" fill="#94a3b8" text-anchor="end">numeric(3,2)</text>
<text x="368" y="435" font-size="11" fill="#1f2937">rating_count</text>
<text x="595" y="435" font-size="9.5" fill="#94a3b8" text-anchor="end">int</text>
<text x="368" y="453" font-size="11" fill="#1f2937">is_open_now</text>
<text x="595" y="453" font-size="9.5" fill="#94a3b8" text-anchor="end">bool</text>
<text x="368" y="471" font-size="11" fill="#1f2937">is_deleted</text>
<text x="595" y="471" font-size="9.5" fill="#94a3b8" text-anchor="end">bool</text>
<text x="348" y="489" font-size="8.8" font-style="italic" fill="#b0b8c4">+ created_at · updated_at</text>
<rect x="687" y="54" width="236" height="178" rx="7" fill="#ffffff" stroke="#16a34a" stroke-width="1.3"/>
<rect x="687" y="54" width="236" height="26" rx="7" fill="#dcfce7" stroke="#16a34a" stroke-width="1.3"/>
<rect x="687" y="73" width="236" height="7" fill="#dcfce7"/>
<line x1="687" y1="80" x2="923" y2="80" stroke="#16a34a" stroke-width="1.1"/>
<text x="697" y="72" font-size="12.5" font-weight="700" fill="#14532d">menu_categories</text>
<text x="697" y="93" font-size="8.5" font-weight="700" fill="#b45309">PK</text>
<text x="717" y="93" font-size="11" fill="#1f2937">id</text>
<text x="913" y="93" font-size="9.5" fill="#94a3b8" text-anchor="end">UUID</text>
<text x="697" y="111" font-size="8.5" font-weight="700" fill="#0e7490">FK</text>
<text x="717" y="111" font-size="11" fill="#1f2937">restaurant_id</text>
<text x="913" y="111" font-size="9.5" fill="#94a3b8" text-anchor="end">→ restaurants</text>
<text x="717" y="129" font-size="11" fill="#1f2937">name / name_en/_de/_tr</text>
<text x="913" y="129" font-size="9.5" fill="#94a3b8" text-anchor="end">varchar</text>
<text x="717" y="147" font-size="11" fill="#1f2937">description</text>
<text x="913" y="147" font-size="9.5" fill="#94a3b8" text-anchor="end">varchar</text>
<text x="717" y="165" font-size="11" fill="#1f2937">image_url</text>
<text x="913" y="165" font-size="9.5" fill="#94a3b8" text-anchor="end">varchar</text>
<text x="717" y="183" font-size="11" fill="#1f2937">sort_order</text>
<text x="913" y="183" font-size="9.5" fill="#94a3b8" text-anchor="end">int</text>
<text x="717" y="201" font-size="11" fill="#1f2937">active</text>
<text x="913" y="201" font-size="9.5" fill="#94a3b8" text-anchor="end">bool</text>
<text x="717" y="219" font-size="11" fill="#1f2937">is_deleted</text>
<text x="913" y="219" font-size="9.5" fill="#94a3b8" text-anchor="end">bool</text>
<rect x="1024" y="54" width="243" height="304" rx="7" fill="#ffffff" stroke="#16a34a" stroke-width="1.3"/>
<rect x="1024" y="54" width="243" height="26" rx="7" fill="#dcfce7" stroke="#16a34a" stroke-width="1.3"/>
<rect x="1024" y="73" width="243" height="7" fill="#dcfce7"/>
<line x1="1024" y1="80" x2="1267" y2="80" stroke="#16a34a" stroke-width="1.1"/>
<text x="1034" y="72" font-size="12.5" font-weight="700" fill="#14532d">menu_items</text>
<text x="1034" y="93" font-size="8.5" font-weight="700" fill="#b45309">PK</text>
<text x="1054" y="93" font-size="11" fill="#1f2937">id</text>
<text x="1257" y="93" font-size="9.5" fill="#94a3b8" text-anchor="end">UUID</text>
<text x="1034" y="111" font-size="8.5" font-weight="700" fill="#0e7490">FK</text>
<text x="1054" y="111" font-size="11" fill="#1f2937">category_id</text>
<text x="1257" y="111" font-size="9.5" fill="#94a3b8" text-anchor="end">→ menu_categories</text>
<text x="1054" y="129" font-size="11" fill="#1f2937">name / name_en/_de/_tr</text>
<text x="1257" y="129" font-size="9.5" fill="#94a3b8" text-anchor="end">varchar</text>
<text x="1054" y="147" font-size="11" fill="#1f2937">description(+lang)</text>
<text x="1257" y="147" font-size="9.5" fill="#94a3b8" text-anchor="end">text</text>
<text x="1054" y="165" font-size="11" fill="#1f2937">price</text>
<text x="1257" y="165" font-size="9.5" fill="#94a3b8" text-anchor="end">numeric(10,2)</text>
<text x="1054" y="183" font-size="11" fill="#1f2937">image_url</text>
<text x="1257" y="183" font-size="9.5" fill="#94a3b8" text-anchor="end">varchar</text>
<text x="1054" y="201" font-size="11" fill="#1f2937">vegetarian/vegan/halal</text>
<text x="1257" y="201" font-size="9.5" fill="#94a3b8" text-anchor="end">bool</text>
<text x="1054" y="219" font-size="11" fill="#1f2937">gluten_free/spicy</text>
<text x="1257" y="219" font-size="9.5" fill="#94a3b8" text-anchor="end">bool</text>
<text x="1054" y="237" font-size="11" fill="#1f2937">allergens</text>
<text x="1257" y="237" font-size="9.5" fill="#94a3b8" text-anchor="end">collection</text>
<text x="1054" y="255" font-size="11" fill="#1f2937">calories</text>
<text x="1257" y="255" font-size="9.5" fill="#94a3b8" text-anchor="end">int</text>
<text x="1054" y="273" font-size="11" fill="#1f2937">preparation_time</text>
<text x="1257" y="273" font-size="9.5" fill="#94a3b8" text-anchor="end">int min</text>
<text x="1054" y="291" font-size="11" fill="#1f2937">available</text>
<text x="1257" y="291" font-size="9.5" fill="#94a3b8" text-anchor="end">bool</text>
<text x="1054" y="309" font-size="11" fill="#1f2937">sort_order</text>
<text x="1257" y="309" font-size="9.5" fill="#94a3b8" text-anchor="end">int</text>
<text x="1054" y="327" font-size="11" fill="#1f2937">modifiers_json</text>
<text x="1257" y="327" font-size="9.5" fill="#94a3b8" text-anchor="end">text</text>
<text x="1054" y="345" font-size="11" fill="#1f2937">is_deleted</text>
<text x="1257" y="345" font-size="9.5" fill="#94a3b8" text-anchor="end">bool</text>
<rect x="687" y="258" width="230" height="142" rx="7" fill="#ffffff" stroke="#16a34a" stroke-width="1.3"/>
<rect x="687" y="258" width="230" height="26" rx="7" fill="#dcfce7" stroke="#16a34a" stroke-width="1.3"/>
<rect x="687" y="277" width="230" height="7" fill="#dcfce7"/>
<line x1="687" y1="284" x2="917" y2="284" stroke="#16a34a" stroke-width="1.1"/>
<text x="697" y="276" font-size="12.5" font-weight="700" fill="#14532d">restaurant_hours</text>
<text x="697" y="297" font-size="8.5" font-weight="700" fill="#b45309">PK</text>
<text x="717" y="297" font-size="11" fill="#1f2937">id</text>
<text x="907" y="297" font-size="9.5" fill="#94a3b8" text-anchor="end">UUID</text>
<text x="697" y="315" font-size="8.5" font-weight="700" fill="#0e7490">FK</text>
<text x="717" y="315" font-size="11" fill="#1f2937">restaurant_id</text>
<text x="907" y="315" font-size="9.5" fill="#94a3b8" text-anchor="end">→ restaurants</text>
<text x="697" y="333" font-size="8.5" font-weight="700" fill="#7c3aed">UQ</text>
<text x="717" y="333" font-size="11" fill="#1f2937">(restaurant_id, day)</text>
<text x="907" y="333" font-size="9.5" fill="#94a3b8" text-anchor="end">unique</text>
<text x="717" y="351" font-size="11" fill="#1f2937">day_of_week</text>
<text x="907" y="351" font-size="9.5" fill="#94a3b8" text-anchor="end">smallint</text>
<text x="717" y="369" font-size="11" fill="#1f2937">opens_at / closes_at</text>
<text x="907" y="369" font-size="9.5" fill="#94a3b8" text-anchor="end">time</text>
<text x="717" y="387" font-size="11" fill="#1f2937">is_closed</text>
<text x="907" y="387" font-size="9.5" fill="#94a3b8" text-anchor="end">bool</text>
<rect x="1024" y="384" width="249" height="214" rx="7" fill="#ffffff" stroke="#16a34a" stroke-width="1.3"/>
<rect x="1024" y="384" width="249" height="26" rx="7" fill="#dcfce7" stroke="#16a34a" stroke-width="1.3"/>
<rect x="1024" y="403" width="249" height="7" fill="#dcfce7"/>
<line x1="1024" y1="410" x2="1273" y2="410" stroke="#16a34a" stroke-width="1.1"/>
<text x="1034" y="402" font-size="12.5" font-weight="700" fill="#14532d">restaurant_reviews</text>
<text x="1034" y="423" font-size="8.5" font-weight="700" fill="#b45309">PK</text>
<text x="1054" y="423" font-size="11" fill="#1f2937">id</text>
<text x="1263" y="423" font-size="9.5" fill="#94a3b8" text-anchor="end">UUID</text>
<text x="1034" y="441" font-size="8.5" font-weight="700" fill="#0e7490">FK</text>
<text x="1054" y="441" font-size="11" fill="#1f2937">restaurant_id</text>
<text x="1263" y="441" font-size="9.5" fill="#94a3b8" text-anchor="end">→ restaurants</text>
<text x="1054" y="459" font-size="11" fill="#1f2937">customer_id</text>
<text x="1263" y="459" font-size="9.5" fill="#94a3b8" text-anchor="end">→ customer.customers</text>
<text x="1054" y="477" font-size="11" fill="#1f2937">customer_name</text>
<text x="1263" y="477" font-size="9.5" fill="#94a3b8" text-anchor="end">denorm</text>
<text x="1034" y="495" font-size="8.5" font-weight="700" fill="#7c3aed">UQ</text>
<text x="1054" y="495" font-size="11" fill="#1f2937">order_id</text>
<text x="1263" y="495" font-size="9.5" fill="#94a3b8" text-anchor="end">one review / order</text>
<text x="1054" y="513" font-size="11" fill="#1f2937">rating</text>
<text x="1263" y="513" font-size="9.5" fill="#94a3b8" text-anchor="end">numeric(2,1)</text>
<text x="1054" y="531" font-size="11" fill="#1f2937">comment</text>
<text x="1263" y="531" font-size="9.5" fill="#94a3b8" text-anchor="end">text</text>
<text x="1054" y="549" font-size="11" fill="#1f2937">owner_reply</text>
<text x="1263" y="549" font-size="9.5" fill="#94a3b8" text-anchor="end">text</text>
<text x="1054" y="567" font-size="11" fill="#1f2937">is_deleted</text>
<text x="1263" y="567" font-size="9.5" fill="#94a3b8" text-anchor="end">bool</text>
<text x="1034" y="585" font-size="8.8" font-style="italic" fill="#b0b8c4">+ created_at · updated_at</text>
<rect x="687" y="426" width="255" height="214" rx="7" fill="#ffffff" stroke="#16a34a" stroke-width="1.3"/>
<rect x="687" y="426" width="255" height="26" rx="7" fill="#dcfce7" stroke="#16a34a" stroke-width="1.3"/>
<rect x="687" y="445" width="255" height="7" fill="#dcfce7"/>
<line x1="687" y1="452" x2="942" y2="452" stroke="#16a34a" stroke-width="1.1"/>
<text x="697" y="444" font-size="12.5" font-weight="700" fill="#14532d">table_reservations</text>
<text x="697" y="465" font-size="8.5" font-weight="700" fill="#b45309">PK</text>
<text x="717" y="465" font-size="11" fill="#1f2937">id</text>
<text x="932" y="465" font-size="9.5" fill="#94a3b8" text-anchor="end">UUID</text>
<text x="697" y="483" font-size="8.5" font-weight="700" fill="#0e7490">FK</text>
<text x="717" y="483" font-size="11" fill="#1f2937">restaurant_id</text>
<text x="932" y="483" font-size="9.5" fill="#94a3b8" text-anchor="end">→ restaurants</text>
<text x="717" y="501" font-size="11" fill="#1f2937">customer_id</text>
<text x="932" y="501" font-size="9.5" fill="#94a3b8" text-anchor="end">→ customer.customers</text>
<text x="717" y="519" font-size="11" fill="#1f2937">customer_name/phone/email</text>
<text x="932" y="519" font-size="9.5" fill="#94a3b8" text-anchor="end">varchar</text>
<text x="717" y="537" font-size="11" fill="#1f2937">party_size</text>
<text x="932" y="537" font-size="9.5" fill="#94a3b8" text-anchor="end">int</text>
<text x="717" y="555" font-size="11" fill="#1f2937">reservation_time</text>
<text x="932" y="555" font-size="9.5" fill="#94a3b8" text-anchor="end">timestamp</text>
<text x="717" y="573" font-size="11" fill="#1f2937">special_requests</text>
<text x="932" y="573" font-size="9.5" fill="#94a3b8" text-anchor="end">varchar</text>
<text x="717" y="591" font-size="11" fill="#1f2937">table_number</text>
<text x="932" y="591" font-size="9.5" fill="#94a3b8" text-anchor="end">varchar</text>
<text x="717" y="609" font-size="11" fill="#1f2937">status</text>
<text x="932" y="609" font-size="9.5" fill="#94a3b8" text-anchor="end">enum</text>
<text x="717" y="627" font-size="11" fill="#1f2937">created_at</text>
<text x="932" y="627" font-size="9.5" fill="#94a3b8" text-anchor="end">timestamp</text>
<rect x="20" y="330" width="210" height="160" rx="7" fill="#ffffff" stroke="#16a34a" stroke-width="1.3"/>
<rect x="20" y="330" width="210" height="26" rx="7" fill="#dcfce7" stroke="#16a34a" stroke-width="1.3"/>
<rect x="20" y="349" width="210" height="7" fill="#dcfce7"/>
<line x1="20" y1="356" x2="230" y2="356" stroke="#16a34a" stroke-width="1.1"/>
<text x="30" y="348" font-size="12.5" font-weight="700" fill="#14532d">outbox_events</text>
<text x="30" y="369" font-size="8.5" font-weight="700" fill="#b45309">PK</text>
<text x="50" y="369" font-size="11" fill="#1f2937">id</text>
<text x="220" y="369" font-size="9.5" fill="#94a3b8" text-anchor="end">UUID</text>
<text x="50" y="387" font-size="11" fill="#1f2937">topic</text>
<text x="220" y="387" font-size="9.5" fill="#94a3b8" text-anchor="end">varchar</text>
<text x="50" y="405" font-size="11" fill="#1f2937">payload</text>
<text x="220" y="405" font-size="9.5" fill="#94a3b8" text-anchor="end">jsonb</text>
<text x="50" y="423" font-size="11" fill="#1f2937">sent</text>
<text x="220" y="423" font-size="9.5" fill="#94a3b8" text-anchor="end">bool</text>
<text x="50" y="441" font-size="11" fill="#1f2937">retry_count</text>
<text x="220" y="441" font-size="9.5" fill="#94a3b8" text-anchor="end">int</text>
<text x="50" y="459" font-size="11" fill="#1f2937">sent_at</text>
<text x="220" y="459" font-size="9.5" fill="#94a3b8" text-anchor="end">timestamp</text>
<text x="50" y="477" font-size="11" fill="#1f2937">last_error</text>
<text x="220" y="477" font-size="9.5" fill="#94a3b8" text-anchor="end">text</text>
</svg>