<svg viewBox="0 0 665 668" xmlns="http://www.w3.org/2000/svg" font-family="Segoe UI, Helvetica, Arial, sans-serif">
<rect x="0" y="0" width="665" height="668" fill="#ffffff"/>
<text x="20" y="38" font-size="15" font-weight="700" fill="#134e4a">inventory_db</text>
<text x="20" y="52" font-size="10.5" fill="#64748b">inventory-service (:9004) · key columns shown</text>
<path d="M287,197.0 H326.0 V143.0 H365" stroke="#475569" stroke-width="1.3" fill="none"/>
<line x1="279" y1="191.0" x2="279" y2="203.0" stroke="#475569" stroke-width="1.3"/>
<path d="M377,143.0 L365,137.0 M377,143.0 L365,143.0 M377,143.0 L365,149.0" stroke="#475569" stroke-width="1.3" fill="none"/>
<path d="M287,455.0 H326.0 V347.0 H365" stroke="#475569" stroke-width="1.3" fill="none"/>
<line x1="279" y1="449.0" x2="279" y2="461.0" stroke="#475569" stroke-width="1.3"/>
<path d="M377,347.0 L365,341.0 M377,347.0 L365,347.0 M377,347.0 L365,353.0" stroke="#475569" stroke-width="1.3" fill="none"/>
<rect x="20" y="54" width="267" height="286" rx="7" fill="#ffffff" stroke="#0d9488" stroke-width="1.3"/>
<rect x="20" y="54" width="267" height="26" rx="7" fill="#ccfbf1" stroke="#0d9488" stroke-width="1.3"/>
<rect x="20" y="73" width="267" height="7" fill="#ccfbf1"/>
<line x1="20" y1="80" x2="287" y2="80" stroke="#0d9488" stroke-width="1.1"/>
<text x="30" y="72" font-size="12.5" font-weight="700" fill="#134e4a">inventory_items</text>
<text x="30" y="93" font-size="8.5" font-weight="700" fill="#b45309">PK</text>
<text x="50" y="93" font-size="11" fill="#1f2937">id</text>
<text x="277" y="93" font-size="9.5" fill="#94a3b8" text-anchor="end">bigint</text>
<text x="30" y="111" font-size="8.5" font-weight="700" fill="#7c3aed">UQ</text>
<text x="50" y="111" font-size="11" fill="#1f2937">product_id</text>
<text x="277" y="111" font-size="9.5" fill="#94a3b8" text-anchor="end">→ product.products</text>
<text x="50" y="129" font-size="11" fill="#1f2937">sku</text>
<text x="277" y="129" font-size="9.5" fill="#94a3b8" text-anchor="end">varchar</text>
<text x="50" y="147" font-size="11" fill="#1f2937">product_name / brand</text>
<text x="277" y="147" font-size="9.5" fill="#94a3b8" text-anchor="end">varchar</text>
<text x="50" y="165" font-size="11" fill="#1f2937">unit_of_measure</text>
<text x="277" y="165" font-size="9.5" fill="#94a3b8" text-anchor="end">varchar</text>
<text x="50" y="183" font-size="11" fill="#1f2937">quantity</text>
<text x="277" y="183" font-size="9.5" fill="#94a3b8" text-anchor="end">int</text>
<text x="50" y="201" font-size="11" fill="#1f2937">sellable_quantity</text>
<text x="277" y="201" font-size="9.5" fill="#94a3b8" text-anchor="end">int</text>
<text x="50" y="219" font-size="11" fill="#1f2937">low_stock_threshold</text>
<text x="277" y="219" font-size="9.5" fill="#94a3b8" text-anchor="end">int</text>
<text x="50" y="237" font-size="11" fill="#1f2937">purchase_price_unit</text>
<text x="277" y="237" font-size="9.5" fill="#94a3b8" text-anchor="end">numeric</text>
<text x="50" y="255" font-size="11" fill="#1f2937">inventory_value</text>
<text x="277" y="255" font-size="9.5" fill="#94a3b8" text-anchor="end">numeric</text>
<text x="50" y="273" font-size="11" fill="#1f2937">out_of_stock / active</text>
<text x="277" y="273" font-size="9.5" fill="#94a3b8" text-anchor="end">bool</text>
<text x="50" y="291" font-size="11" fill="#1f2937">manage_inventory</text>
<text x="277" y="291" font-size="9.5" fill="#94a3b8" text-anchor="end">bool</text>
<text x="50" y="309" font-size="11" fill="#1f2937">last_restocked_at</text>
<text x="277" y="309" font-size="9.5" fill="#94a3b8" text-anchor="end">timestamp</text>
<text x="30" y="327" font-size="8.8" font-style="italic" fill="#b0b8c4">+ audit: created_at · updated_at · created_by</text>
<rect x="20" y="366" width="267" height="178" rx="7" fill="#ffffff" stroke="#0d9488" stroke-width="1.3"/>
<rect x="20" y="366" width="267" height="26" rx="7" fill="#ccfbf1" stroke="#0d9488" stroke-width="1.3"/>
<rect x="20" y="385" width="267" height="7" fill="#ccfbf1"/>
<line x1="20" y1="392" x2="287" y2="392" stroke="#0d9488" stroke-width="1.1"/>
<text x="30" y="384" font-size="12.5" font-weight="700" fill="#134e4a">suppliers</text>
<text x="30" y="405" font-size="8.5" font-weight="700" fill="#b45309">PK</text>
<text x="50" y="405" font-size="11" fill="#1f2937">id</text>
<text x="277" y="405" font-size="9.5" fill="#94a3b8" text-anchor="end">bigint</text>
<text x="50" y="423" font-size="11" fill="#1f2937">name</text>
<text x="277" y="423" font-size="9.5" fill="#94a3b8" text-anchor="end">varchar</text>
<text x="50" y="441" font-size="11" fill="#1f2937">first_name / last_name</text>
<text x="277" y="441" font-size="9.5" fill="#94a3b8" text-anchor="end">varchar</text>
<text x="50" y="459" font-size="11" fill="#1f2937">village / city / state</text>
<text x="277" y="459" font-size="9.5" fill="#94a3b8" text-anchor="end">varchar</text>
<text x="50" y="477" font-size="11" fill="#1f2937">mobile_number</text>
<text x="277" y="477" font-size="9.5" fill="#94a3b8" text-anchor="end">varchar</text>
<text x="50" y="495" font-size="11" fill="#1f2937">email</text>
<text x="277" y="495" font-size="9.5" fill="#94a3b8" text-anchor="end">varchar</text>
<text x="50" y="513" font-size="11" fill="#1f2937">active</text>
<text x="277" y="513" font-size="9.5" fill="#94a3b8" text-anchor="end">bool</text>
<text x="30" y="531" font-size="8.8" font-style="italic" fill="#b0b8c4">+ audit: created_at · updated_at · created_by</text>
<rect x="365" y="54" width="280" height="178" rx="7" fill="#ffffff" stroke="#0d9488" stroke-width="1.3"/>
<rect x="365" y="54" width="280" height="26" rx="7" fill="#ccfbf1" stroke="#0d9488" stroke-width="1.3"/>
<rect x="365" y="73" width="280" height="7" fill="#ccfbf1"/>
<line x1="365" y1="80" x2="645" y2="80" stroke="#0d9488" stroke-width="1.1"/>
<text x="375" y="72" font-size="12.5" font-weight="700" fill="#134e4a">dump_entries</text>
<text x="375" y="93" font-size="8.5" font-weight="700" fill="#b45309">PK</text>
<text x="395" y="93" font-size="11" fill="#1f2937">id</text>
<text x="635" y="93" font-size="9.5" fill="#94a3b8" text-anchor="end">bigint</text>
<text x="375" y="111" font-size="8.5" font-weight="700" fill="#0e7490">FK</text>
<text x="395" y="111" font-size="11" fill="#1f2937">inventory_item_id</text>
<text x="635" y="111" font-size="9.5" fill="#94a3b8" text-anchor="end">→ inventory_items</text>
<text x="395" y="129" font-size="11" fill="#1f2937">product_id / name</text>
<text x="635" y="129" font-size="9.5" fill="#94a3b8" text-anchor="end">varchar</text>
<text x="395" y="147" font-size="11" fill="#1f2937">quantity</text>
<text x="635" y="147" font-size="9.5" fill="#94a3b8" text-anchor="end">int</text>
<text x="395" y="165" font-size="11" fill="#1f2937">purchase_price_unit</text>
<text x="635" y="165" font-size="9.5" fill="#94a3b8" text-anchor="end">numeric</text>
<text x="395" y="183" font-size="11" fill="#1f2937">total_cost</text>
<text x="635" y="183" font-size="9.5" fill="#94a3b8" text-anchor="end">numeric</text>
<text x="395" y="201" font-size="11" fill="#1f2937">dump_date</text>
<text x="635" y="201" font-size="9.5" fill="#94a3b8" text-anchor="end">date</text>
<text x="375" y="219" font-size="8.8" font-style="italic" fill="#b0b8c4">+ audit: created_at · updated_at · created_by</text>
<rect x="365" y="258" width="267" height="178" rx="7" fill="#ffffff" stroke="#0d9488" stroke-width="1.3"/>
<rect x="365" y="258" width="267" height="26" rx="7" fill="#ccfbf1" stroke="#0d9488" stroke-width="1.3"/>
<rect x="365" y="277" width="267" height="7" fill="#ccfbf1"/>
<line x1="365" y1="284" x2="632" y2="284" stroke="#0d9488" stroke-width="1.1"/>
<text x="375" y="276" font-size="12.5" font-weight="700" fill="#134e4a">purchase_history</text>
<text x="375" y="297" font-size="8.5" font-weight="700" fill="#b45309">PK</text>
<text x="395" y="297" font-size="11" fill="#1f2937">id</text>
<text x="622" y="297" font-size="9.5" fill="#94a3b8" text-anchor="end">bigint</text>
<text x="395" y="315" font-size="11" fill="#1f2937">product_id</text>
<text x="622" y="315" font-size="9.5" fill="#94a3b8" text-anchor="end">bigint</text>
<text x="395" y="333" font-size="11" fill="#1f2937">sku / product_name</text>
<text x="622" y="333" font-size="9.5" fill="#94a3b8" text-anchor="end">varchar</text>
<text x="395" y="351" font-size="11" fill="#1f2937">purchase_price_unit</text>
<text x="622" y="351" font-size="9.5" fill="#94a3b8" text-anchor="end">numeric</text>
<text x="395" y="369" font-size="11" fill="#1f2937">quantity</text>
<text x="622" y="369" font-size="9.5" fill="#94a3b8" text-anchor="end">int</text>
<text x="375" y="387" font-size="8.5" font-weight="700" fill="#0e7490">FK</text>
<text x="395" y="387" font-size="11" fill="#1f2937">supplier_id</text>
<text x="622" y="387" font-size="9.5" fill="#94a3b8" text-anchor="end">→ suppliers</text>
<text x="395" y="405" font-size="11" fill="#1f2937">supplier_name</text>
<text x="622" y="405" font-size="9.5" fill="#94a3b8" text-anchor="end">varchar</text>
<text x="375" y="423" font-size="8.8" font-style="italic" fill="#b0b8c4">+ audit: created_at · updated_at · created_by</text>
<rect x="365" y="462" width="267" height="160" rx="7" fill="#ffffff" stroke="#0d9488" stroke-width="1.3"/>
<rect x="365" y="462" width="267" height="26" rx="7" fill="#ccfbf1" stroke="#0d9488" stroke-width="1.3"/>
<rect x="365" y="481" width="267" height="7" fill="#ccfbf1"/>
<line x1="365" y1="488" x2="632" y2="488" stroke="#0d9488" stroke-width="1.1"/>
<text x="375" y="480" font-size="12.5" font-weight="700" fill="#134e4a">inventory_import_jobs</text>
<text x="375" y="501" font-size="8.5" font-weight="700" fill="#b45309">PK</text>
<text x="395" y="501" font-size="11" fill="#1f2937">id</text>
<text x="622" y="501" font-size="9.5" fill="#94a3b8" text-anchor="end">bigint</text>
<text x="395" y="519" font-size="11" fill="#1f2937">original_filename</text>
<text x="622" y="519" font-size="9.5" fill="#94a3b8" text-anchor="end">varchar</text>
<text x="395" y="537" font-size="11" fill="#1f2937">status</text>
<text x="622" y="537" font-size="9.5" fill="#94a3b8" text-anchor="end">enum</text>
<text x="395" y="555" font-size="11" fill="#1f2937">total_rows</text>
<text x="622" y="555" font-size="9.5" fill="#94a3b8" text-anchor="end">int</text>
<text x="395" y="573" font-size="11" fill="#1f2937">success_count / failure_count</text>
<text x="622" y="573" font-size="9.5" fill="#94a3b8" text-anchor="end">int</text>
<text x="395" y="591" font-size="11" fill="#1f2937">initiated_by</text>
<text x="622" y="591" font-size="9.5" fill="#94a3b8" text-anchor="end">varchar</text>
<text x="375" y="609" font-size="8.8" font-style="italic" fill="#b0b8c4">+ audit: created_at · updated_at · created_by</text>
</svg>