<svg viewBox="0 0 1054 680" xmlns="http://www.w3.org/2000/svg" font-family="Segoe UI, Helvetica, Arial, sans-serif">
<rect x="0" y="0" width="1054" height="680" fill="#ffffff"/>
<text x="20" y="38" font-size="15" font-weight="700" fill="#1e3a8a">order_db</text>
<text x="20" y="52" font-size="10.5" fill="#64748b">order-service (:9005) · key columns shown</text>
<path d="M300,224.0 H339.0 V152.0 H378" stroke="#475569" stroke-width="1.3" fill="none"/>
<line x1="292" y1="218.0" x2="292" y2="230.0" stroke="#475569" stroke-width="1.3"/>
<path d="M390,152.0 L378,146.0 M390,152.0 L378,152.0 M390,152.0 L378,158.0" stroke="#475569" stroke-width="1.3" fill="none"/>
<path d="M287,527.0 H332.5 V365.0 H378" stroke="#475569" stroke-width="1.3" fill="none"/>
<line x1="279" y1="521.0" x2="279" y2="533.0" stroke="#475569" stroke-width="1.3"/>
<path d="M390,365.0 L378,359.0 M390,365.0 L378,365.0 M390,365.0 L378,371.0" stroke="#475569" stroke-width="1.3" fill="none"/>
<rect x="20" y="54" width="280" height="340" rx="7" fill="#ffffff" stroke="#2563eb" stroke-width="1.3"/>
<rect x="20" y="54" width="280" height="26" rx="7" fill="#dbeafe" stroke="#2563eb" stroke-width="1.3"/>
<rect x="20" y="73" width="280" height="7" fill="#dbeafe"/>
<line x1="20" y1="80" x2="300" y2="80" stroke="#2563eb" stroke-width="1.1"/>
<text x="30" y="72" font-size="12.5" font-weight="700" fill="#1e3a8a">orders</text>
<text x="30" y="93" font-size="8.5" font-weight="700" fill="#b45309">PK</text>
<text x="50" y="93" font-size="11" fill="#1f2937">id</text>
<text x="290" y="93" font-size="9.5" fill="#94a3b8" text-anchor="end">bigint</text>
<text x="30" y="111" font-size="8.5" font-weight="700" fill="#7c3aed">UQ</text>
<text x="50" y="111" font-size="11" fill="#1f2937">order_id</text>
<text x="290" y="111" font-size="9.5" fill="#94a3b8" text-anchor="end">public ref e.g. YBIFL4ES</text>
<text x="50" y="129" font-size="11" fill="#1f2937">customer_id</text>
<text x="290" y="129" font-size="9.5" fill="#94a3b8" text-anchor="end">→ auth.users</text>
<text x="50" y="147" font-size="11" fill="#1f2937">customer_name / phone / email</text>
<text x="290" y="147" font-size="9.5" fill="#94a3b8" text-anchor="end">varchar</text>
<text x="50" y="165" font-size="11" fill="#1f2937">full_address</text>
<text x="290" y="165" font-size="9.5" fill="#94a3b8" text-anchor="end">varchar</text>
<text x="50" y="183" font-size="11" fill="#1f2937">source</text>
<text x="290" y="183" font-size="9.5" fill="#94a3b8" text-anchor="end">enum APP|POS|B2B</text>
<text x="50" y="201" font-size="11" fill="#1f2937">status</text>
<text x="290" y="201" font-size="9.5" fill="#94a3b8" text-anchor="end">enum ORDER_CREATED…DELIVERED</text>
<text x="50" y="219" font-size="11" fill="#1f2937">order_amount / total_amount</text>
<text x="290" y="219" font-size="9.5" fill="#94a3b8" text-anchor="end">numeric</text>
<text x="50" y="237" font-size="11" fill="#1f2937">delivery_charge / discount</text>
<text x="290" y="237" font-size="9.5" fill="#94a3b8" text-anchor="end">numeric</text>
<text x="50" y="255" font-size="11" fill="#1f2937">wallet_amount / amount_paid</text>
<text x="290" y="255" font-size="9.5" fill="#94a3b8" text-anchor="end">numeric</text>
<text x="50" y="273" font-size="11" fill="#1f2937">payment_type</text>
<text x="290" y="273" font-size="9.5" fill="#94a3b8" text-anchor="end">enum</text>
<text x="50" y="291" font-size="11" fill="#1f2937">payment_status</text>
<text x="290" y="291" font-size="9.5" fill="#94a3b8" text-anchor="end">enum</text>
<text x="50" y="309" font-size="11" fill="#1f2937">payment_reference</text>
<text x="290" y="309" font-size="9.5" fill="#94a3b8" text-anchor="end">varchar</text>
<text x="50" y="327" font-size="11" fill="#1f2937">delivery_date</text>
<text x="290" y="327" font-size="9.5" fill="#94a3b8" text-anchor="end">date</text>
<text x="50" y="345" font-size="11" fill="#1f2937">tracking_id</text>
<text x="290" y="345" font-size="9.5" fill="#94a3b8" text-anchor="end">varchar</text>
<text x="50" y="363" font-size="11" fill="#1f2937">delivery_boy_id / name</text>
<text x="290" y="363" font-size="9.5" fill="#94a3b8" text-anchor="end">denorm</text>
<text x="30" y="381" font-size="8.8" font-style="italic" fill="#b0b8c4">+ audit: created_at · updated_at · created_by</text>
<rect x="378" y="54" width="261" height="196" rx="7" fill="#ffffff" stroke="#2563eb" stroke-width="1.3"/>
<rect x="378" y="54" width="261" height="26" rx="7" fill="#dbeafe" stroke="#2563eb" stroke-width="1.3"/>
<rect x="378" y="73" width="261" height="7" fill="#dbeafe"/>
<line x1="378" y1="80" x2="639" y2="80" stroke="#2563eb" stroke-width="1.1"/>
<text x="388" y="72" font-size="12.5" font-weight="700" fill="#1e3a8a">order_items</text>
<text x="388" y="93" font-size="8.5" font-weight="700" fill="#b45309">PK</text>
<text x="408" y="93" font-size="11" fill="#1f2937">id</text>
<text x="629" y="93" font-size="9.5" fill="#94a3b8" text-anchor="end">bigint</text>
<text x="388" y="111" font-size="8.5" font-weight="700" fill="#0e7490">FK</text>
<text x="408" y="111" font-size="11" fill="#1f2937">order_id</text>
<text x="629" y="111" font-size="9.5" fill="#94a3b8" text-anchor="end">→ orders</text>
<text x="408" y="129" font-size="11" fill="#1f2937">product_id</text>
<text x="629" y="129" font-size="9.5" fill="#94a3b8" text-anchor="end">→ product.products</text>
<text x="408" y="147" font-size="11" fill="#1f2937">sku / product_name / brand</text>
<text x="629" y="147" font-size="9.5" fill="#94a3b8" text-anchor="end">varchar</text>
<text x="408" y="165" font-size="11" fill="#1f2937">quantity</text>
<text x="629" y="165" font-size="9.5" fill="#94a3b8" text-anchor="end">int</text>
<text x="408" y="183" font-size="11" fill="#1f2937">unit_price / total_price</text>
<text x="629" y="183" font-size="9.5" fill="#94a3b8" text-anchor="end">numeric</text>
<text x="408" y="201" font-size="11" fill="#1f2937">discount_amount</text>
<text x="629" y="201" font-size="9.5" fill="#94a3b8" text-anchor="end">numeric</text>
<text x="408" y="219" font-size="11" fill="#1f2937">cancelled</text>
<text x="629" y="219" font-size="9.5" fill="#94a3b8" text-anchor="end">bool</text>
<text x="408" y="237" font-size="11" fill="#1f2937">refunded_to_wallet</text>
<text x="629" y="237" font-size="9.5" fill="#94a3b8" text-anchor="end">bool</text>
<rect x="20" y="420" width="267" height="214" rx="7" fill="#ffffff" stroke="#2563eb" stroke-width="1.3"/>
<rect x="20" y="420" width="267" height="26" rx="7" fill="#dbeafe" stroke="#2563eb" stroke-width="1.3"/>
<rect x="20" y="439" width="267" height="7" fill="#dbeafe"/>
<line x1="20" y1="446" x2="287" y2="446" stroke="#2563eb" stroke-width="1.1"/>
<text x="30" y="438" font-size="12.5" font-weight="700" fill="#1e3a8a">b2b_uploads</text>
<text x="30" y="459" font-size="8.5" font-weight="700" fill="#b45309">PK</text>
<text x="50" y="459" font-size="11" fill="#1f2937">id</text>
<text x="277" y="459" font-size="9.5" fill="#94a3b8" text-anchor="end">bigint</text>
<text x="30" y="477" font-size="8.5" font-weight="700" fill="#7c3aed">UQ</text>
<text x="50" y="477" font-size="11" fill="#1f2937">upload_ref</text>
<text x="277" y="477" font-size="9.5" fill="#94a3b8" text-anchor="end">varchar</text>
<text x="50" y="495" font-size="11" fill="#1f2937">source</text>
<text x="277" y="495" font-size="9.5" fill="#94a3b8" text-anchor="end">varchar</text>
<text x="50" y="513" font-size="11" fill="#1f2937">original_filename</text>
<text x="277" y="513" font-size="9.5" fill="#94a3b8" text-anchor="end">varchar</text>
<text x="50" y="531" font-size="11" fill="#1f2937">file_type</text>
<text x="277" y="531" font-size="9.5" fill="#94a3b8" text-anchor="end">enum IMAGE|CSV…</text>
<text x="50" y="549" font-size="11" fill="#1f2937">status</text>
<text x="277" y="549" font-size="9.5" fill="#94a3b8" text-anchor="end">enum</text>
<text x="50" y="567" font-size="11" fill="#1f2937">delivery_date</text>
<text x="277" y="567" font-size="9.5" fill="#94a3b8" text-anchor="end">date</text>
<text x="50" y="585" font-size="11" fill="#1f2937">invoice_number</text>
<text x="277" y="585" font-size="9.5" fill="#94a3b8" text-anchor="end">varchar</text>
<text x="50" y="603" font-size="11" fill="#1f2937">order_id</text>
<text x="277" y="603" font-size="9.5" fill="#94a3b8" text-anchor="end">→ orders.order_id</text>
<text x="30" y="621" font-size="8.8" font-style="italic" fill="#b0b8c4">+ audit: created_at · updated_at · created_by</text>
<rect x="378" y="276" width="280" height="178" rx="7" fill="#ffffff" stroke="#2563eb" stroke-width="1.3"/>
<rect x="378" y="276" width="280" height="26" rx="7" fill="#dbeafe" stroke="#2563eb" stroke-width="1.3"/>
<rect x="378" y="295" width="280" height="7" fill="#dbeafe"/>
<line x1="378" y1="302" x2="658" y2="302" stroke="#2563eb" stroke-width="1.1"/>
<text x="388" y="294" font-size="12.5" font-weight="700" fill="#1e3a8a">b2b_upload_items</text>
<text x="388" y="315" font-size="8.5" font-weight="700" fill="#b45309">PK</text>
<text x="408" y="315" font-size="11" fill="#1f2937">id</text>
<text x="648" y="315" font-size="9.5" fill="#94a3b8" text-anchor="end">bigint</text>
<text x="388" y="333" font-size="8.5" font-weight="700" fill="#0e7490">FK</text>
<text x="408" y="333" font-size="11" fill="#1f2937">upload_id</text>
<text x="648" y="333" font-size="9.5" fill="#94a3b8" text-anchor="end">→ b2b_uploads</text>
<text x="408" y="351" font-size="11" fill="#1f2937">external_product_name</text>
<text x="648" y="351" font-size="9.5" fill="#94a3b8" text-anchor="end">varchar</text>
<text x="408" y="369" font-size="11" fill="#1f2937">external_barcode</text>
<text x="648" y="369" font-size="9.5" fill="#94a3b8" text-anchor="end">varchar</text>
<text x="408" y="387" font-size="11" fill="#1f2937">uom</text>
<text x="648" y="387" font-size="9.5" fill="#94a3b8" text-anchor="end">varchar</text>
<text x="408" y="405" font-size="11" fill="#1f2937">quantity / unit_price</text>
<text x="648" y="405" font-size="9.5" fill="#94a3b8" text-anchor="end">numeric</text>
<text x="408" y="423" font-size="11" fill="#1f2937">internal_product_id / sku</text>
<text x="648" y="423" font-size="9.5" fill="#94a3b8" text-anchor="end">ref product</text>
<text x="408" y="441" font-size="11" fill="#1f2937">mapping_status</text>
<text x="648" y="441" font-size="9.5" fill="#94a3b8" text-anchor="end">enum</text>
<rect x="736" y="54" width="286" height="160" rx="7" fill="#ffffff" stroke="#2563eb" stroke-width="1.3"/>
<rect x="736" y="54" width="286" height="26" rx="7" fill="#dbeafe" stroke="#2563eb" stroke-width="1.3"/>
<rect x="736" y="73" width="286" height="7" fill="#dbeafe"/>
<line x1="736" y1="80" x2="1022" y2="80" stroke="#2563eb" stroke-width="1.1"/>
<text x="746" y="72" font-size="12.5" font-weight="700" fill="#1e3a8a">b2b_product_mappings</text>
<text x="746" y="93" font-size="8.5" font-weight="700" fill="#b45309">PK</text>
<text x="766" y="93" font-size="11" fill="#1f2937">id</text>
<text x="1012" y="93" font-size="9.5" fill="#94a3b8" text-anchor="end">bigint</text>
<text x="746" y="111" font-size="8.5" font-weight="700" fill="#7c3aed">UQ</text>
<text x="766" y="111" font-size="11" fill="#1f2937">source+external_name</text>
<text x="1012" y="111" font-size="9.5" fill="#94a3b8" text-anchor="end">varchar</text>
<text x="766" y="129" font-size="11" fill="#1f2937">external_item_id / barcode</text>
<text x="1012" y="129" font-size="9.5" fill="#94a3b8" text-anchor="end">varchar</text>
<text x="766" y="147" font-size="11" fill="#1f2937">internal_product_id</text>
<text x="1012" y="147" font-size="9.5" fill="#94a3b8" text-anchor="end">→ product.products</text>
<text x="766" y="165" font-size="11" fill="#1f2937">internal_product_name / sku</text>
<text x="1012" y="165" font-size="9.5" fill="#94a3b8" text-anchor="end">varchar</text>
<text x="766" y="183" font-size="11" fill="#1f2937">mapping_type</text>
<text x="1012" y="183" font-size="9.5" fill="#94a3b8" text-anchor="end">MANUAL|AUTO</text>
<text x="766" y="201" font-size="11" fill="#1f2937">confidence</text>
<text x="1012" y="201" font-size="9.5" fill="#94a3b8" text-anchor="end">smallint</text>
<rect x="736" y="240" width="298" height="124" rx="7" fill="#ffffff" stroke="#2563eb" stroke-width="1.3"/>
<rect x="736" y="240" width="298" height="26" rx="7" fill="#dbeafe" stroke="#2563eb" stroke-width="1.3"/>
<rect x="736" y="259" width="298" height="7" fill="#dbeafe"/>
<line x1="736" y1="266" x2="1034" y2="266" stroke="#2563eb" stroke-width="1.1"/>
<text x="746" y="258" font-size="12.5" font-weight="700" fill="#1e3a8a">b2b_product_prices</text>
<text x="746" y="279" font-size="8.5" font-weight="700" fill="#b45309">PK</text>
<text x="766" y="279" font-size="11" fill="#1f2937">id</text>
<text x="1024" y="279" font-size="9.5" fill="#94a3b8" text-anchor="end">bigint</text>
<text x="746" y="297" font-size="8.5" font-weight="700" fill="#7c3aed">UQ</text>
<text x="766" y="297" font-size="11" fill="#1f2937">internal_product_id</text>
<text x="1024" y="297" font-size="9.5" fill="#94a3b8" text-anchor="end">→ product.products</text>
<text x="766" y="315" font-size="11" fill="#1f2937">internal_product_name / sku</text>
<text x="1024" y="315" font-size="9.5" fill="#94a3b8" text-anchor="end">varchar</text>
<text x="766" y="333" font-size="11" fill="#1f2937">b2b_price</text>
<text x="1024" y="333" font-size="9.5" fill="#94a3b8" text-anchor="end">numeric</text>
<text x="766" y="351" font-size="11" fill="#1f2937">uom_value / uom_unit</text>
<text x="1024" y="351" font-size="9.5" fill="#94a3b8" text-anchor="end">varchar</text>
</svg>