<svg viewBox="0 0 738 554" xmlns="http://www.w3.org/2000/svg" font-family="Segoe UI, Helvetica, Arial, sans-serif">
<rect x="0" y="0" width="738" height="554" fill="#ffffff"/>
<text x="20" y="38" font-size="15" font-weight="700" fill="#7c2d12">procurement_db</text>
<text x="20" y="52" font-size="10.5" fill="#64748b">procurement-service (:9008) · key columns shown</text>
<path d="M324,188.0 H363.0 V134.0 H402" stroke="#475569" stroke-width="1.3" fill="none"/>
<line x1="316" y1="182.0" x2="316" y2="194.0" stroke="#475569" stroke-width="1.3"/>
<path d="M414,134.0 L402,128.0 M414,134.0 L402,134.0 M414,134.0 L402,140.0" stroke="#475569" stroke-width="1.3" fill="none"/>
<path d="M324,188.0 H363.0 V374.0 H402" stroke="#475569" stroke-width="1.3" fill="none"/>
<line x1="316" y1="182.0" x2="316" y2="194.0" stroke="#475569" stroke-width="1.3"/>
<path d="M414,374.0 L402,368.0 M414,374.0 L402,374.0 M414,374.0 L402,380.0" stroke="#475569" stroke-width="1.3" fill="none"/>
<rect x="20" y="54" width="304" height="268" rx="7" fill="#ffffff" stroke="#d97706" stroke-width="1.3"/>
<rect x="20" y="54" width="304" height="26" rx="7" fill="#fef3c7" stroke="#d97706" stroke-width="1.3"/>
<rect x="20" y="73" width="304" height="7" fill="#fef3c7"/>
<line x1="20" y1="80" x2="324" y2="80" stroke="#d97706" stroke-width="1.1"/>
<text x="30" y="72" font-size="12.5" font-weight="700" fill="#7c2d12">procurement_orders</text>
<text x="30" y="93" font-size="8.5" font-weight="700" fill="#b45309">PK</text>
<text x="50" y="93" font-size="11" fill="#1f2937">id</text>
<text x="314" y="93" font-size="9.5" fill="#94a3b8" text-anchor="end">bigint</text>
<text x="50" y="111" font-size="11" fill="#1f2937">order_id</text>
<text x="314" y="111" font-size="9.5" fill="#94a3b8" text-anchor="end">ref order (optional)</text>
<text x="50" y="129" font-size="11" fill="#1f2937">customer_name</text>
<text x="314" y="129" font-size="9.5" fill="#94a3b8" text-anchor="end">varchar</text>
<text x="50" y="147" font-size="11" fill="#1f2937">order_date / expected_delivery</text>
<text x="314" y="147" font-size="9.5" fill="#94a3b8" text-anchor="end">date</text>
<text x="30" y="165" font-size="8.5" font-weight="700" fill="#0e7490">FK</text>
<text x="50" y="165" font-size="11" fill="#1f2937">supplier_id</text>
<text x="314" y="165" font-size="9.5" fill="#94a3b8" text-anchor="end">→ inventory.suppliers</text>
<text x="50" y="183" font-size="11" fill="#1f2937">supplier_name</text>
<text x="314" y="183" font-size="9.5" fill="#94a3b8" text-anchor="end">varchar</text>
<text x="50" y="201" font-size="11" fill="#1f2937">type</text>
<text x="314" y="201" font-size="9.5" fill="#94a3b8" text-anchor="end">enum ORDER_BASED|LOW_STOCK</text>
<text x="50" y="219" font-size="11" fill="#1f2937">status</text>
<text x="314" y="219" font-size="9.5" fill="#94a3b8" text-anchor="end">enum PENDING|…</text>
<text x="50" y="237" font-size="11" fill="#1f2937">total_cost</text>
<text x="314" y="237" font-size="9.5" fill="#94a3b8" text-anchor="end">numeric</text>
<text x="50" y="255" font-size="11" fill="#1f2937">payment_status</text>
<text x="314" y="255" font-size="9.5" fill="#94a3b8" text-anchor="end">enum</text>
<text x="50" y="273" font-size="11" fill="#1f2937">paid_amount</text>
<text x="314" y="273" font-size="9.5" fill="#94a3b8" text-anchor="end">numeric</text>
<text x="50" y="291" font-size="11" fill="#1f2937">invoice_number / custom_po_number</text>
<text x="314" y="291" font-size="9.5" fill="#94a3b8" text-anchor="end">varchar</text>
<text x="30" y="309" font-size="8.8" font-style="italic" fill="#b0b8c4">+ audit: created_at · updated_at · created_by</text>
<rect x="402" y="54" width="316" height="160" rx="7" fill="#ffffff" stroke="#d97706" stroke-width="1.3"/>
<rect x="402" y="54" width="316" height="26" rx="7" fill="#fef3c7" stroke="#d97706" stroke-width="1.3"/>
<rect x="402" y="73" width="316" height="7" fill="#fef3c7"/>
<line x1="402" y1="80" x2="718" y2="80" stroke="#d97706" stroke-width="1.1"/>
<text x="412" y="72" font-size="12.5" font-weight="700" fill="#7c2d12">procurement_items</text>
<text x="412" y="93" font-size="8.5" font-weight="700" fill="#b45309">PK</text>
<text x="432" y="93" font-size="11" fill="#1f2937">id</text>
<text x="708" y="93" font-size="9.5" fill="#94a3b8" text-anchor="end">bigint</text>
<text x="412" y="111" font-size="8.5" font-weight="700" fill="#0e7490">FK</text>
<text x="432" y="111" font-size="11" fill="#1f2937">procurement_order_id</text>
<text x="708" y="111" font-size="9.5" fill="#94a3b8" text-anchor="end">→ procurement_orders</text>
<text x="432" y="129" font-size="11" fill="#1f2937">product_id / sku</text>
<text x="708" y="129" font-size="9.5" fill="#94a3b8" text-anchor="end">varchar</text>
<text x="432" y="147" font-size="11" fill="#1f2937">product_name / brand</text>
<text x="708" y="147" font-size="9.5" fill="#94a3b8" text-anchor="end">varchar</text>
<text x="432" y="165" font-size="11" fill="#1f2937">required_quantity</text>
<text x="708" y="165" font-size="9.5" fill="#94a3b8" text-anchor="end">int</text>
<text x="432" y="183" font-size="11" fill="#1f2937">procured_quantity</text>
<text x="708" y="183" font-size="9.5" fill="#94a3b8" text-anchor="end">int</text>
<text x="432" y="201" font-size="11" fill="#1f2937">unit_cost / total_cost</text>
<text x="708" y="201" font-size="9.5" fill="#94a3b8" text-anchor="end">numeric</text>
<rect x="402" y="240" width="316" height="268" rx="7" fill="#ffffff" stroke="#d97706" stroke-width="1.3"/>
<rect x="402" y="240" width="316" height="26" rx="7" fill="#fef3c7" stroke="#d97706" stroke-width="1.3"/>
<rect x="402" y="259" width="316" height="7" fill="#fef3c7"/>
<line x1="402" y1="266" x2="718" y2="266" stroke="#d97706" stroke-width="1.1"/>
<text x="412" y="258" font-size="12.5" font-weight="700" fill="#7c2d12">store_inventory_items</text>
<text x="412" y="279" font-size="8.5" font-weight="700" fill="#b45309">PK</text>
<text x="432" y="279" font-size="11" fill="#1f2937">id</text>
<text x="708" y="279" font-size="9.5" fill="#94a3b8" text-anchor="end">bigint</text>
<text x="412" y="297" font-size="8.5" font-weight="700" fill="#0e7490">FK</text>
<text x="432" y="297" font-size="11" fill="#1f2937">procurement_order_id</text>
<text x="708" y="297" font-size="9.5" fill="#94a3b8" text-anchor="end">→ procurement_orders</text>
<text x="432" y="315" font-size="11" fill="#1f2937">product_id / sku</text>
<text x="708" y="315" font-size="9.5" fill="#94a3b8" text-anchor="end">varchar</text>
<text x="432" y="333" font-size="11" fill="#1f2937">product_name / brand</text>
<text x="708" y="333" font-size="9.5" fill="#94a3b8" text-anchor="end">varchar</text>
<text x="432" y="351" font-size="11" fill="#1f2937">received_quantity</text>
<text x="708" y="351" font-size="9.5" fill="#94a3b8" text-anchor="end">int</text>
<text x="432" y="369" font-size="11" fill="#1f2937">inspected / approved / rejected_qty</text>
<text x="708" y="369" font-size="9.5" fill="#94a3b8" text-anchor="end">int</text>
<text x="432" y="387" font-size="11" fill="#1f2937">transferred_quantity</text>
<text x="708" y="387" font-size="9.5" fill="#94a3b8" text-anchor="end">int</text>
<text x="432" y="405" font-size="11" fill="#1f2937">unit_cost</text>
<text x="708" y="405" font-size="9.5" fill="#94a3b8" text-anchor="end">numeric</text>
<text x="432" y="423" font-size="11" fill="#1f2937">batch_number</text>
<text x="708" y="423" font-size="9.5" fill="#94a3b8" text-anchor="end">varchar</text>
<text x="432" y="441" font-size="11" fill="#1f2937">expiry_date</text>
<text x="708" y="441" font-size="9.5" fill="#94a3b8" text-anchor="end">date</text>
<text x="432" y="459" font-size="11" fill="#1f2937">status</text>
<text x="708" y="459" font-size="9.5" fill="#94a3b8" text-anchor="end">enum RECEIVED|…</text>
<text x="432" y="477" font-size="11" fill="#1f2937">storage_location</text>
<text x="708" y="477" font-size="9.5" fill="#94a3b8" text-anchor="end">varchar</text>
<text x="412" y="495" font-size="8.8" font-style="italic" fill="#b0b8c4">+ audit: created_at · updated_at · created_by</text>
</svg>