<svg viewBox="0 0 997 482" xmlns="http://www.w3.org/2000/svg" font-family="Segoe UI, Helvetica, Arial, sans-serif">
<rect x="0" y="0" width="997" height="482" fill="#ffffff"/>
<text x="20" y="38" font-size="15" font-weight="700" fill="#14532d">product_db</text>
<text x="20" y="52" font-size="10.5" fill="#64748b">product-service (:9003) · key columns shown</text>
<path d="M287,152.0 H326.0 V215.0 H365" stroke="#475569" stroke-width="1.3" fill="none"/>
<line x1="279" y1="146.0" x2="279" y2="158.0" stroke="#475569" stroke-width="1.3"/>
<path d="M377,215.0 L365,209.0 M377,215.0 L365,215.0 M377,215.0 L365,221.0" stroke="#475569" stroke-width="1.3" fill="none"/>
<path d="M287,94 h18 v34 h-18" stroke="#475569" stroke-width="1.3" fill="none"/><path d="M299,128 L287,122 M299,128 L287,128 M299,128 L287,134" stroke="#475569" stroke-width="1.3" fill="none"/><text x="309" y="114" font-size="8.5" fill="#64748b" transform="rotate(90 309 114)">parent_id</text>
<path d="M632,215.0 H671.0 V89.0 H710" stroke="#475569" stroke-width="1.3" fill="none"/>
<line x1="624" y1="209.0" x2="624" y2="221.0" stroke="#475569" stroke-width="1.3"/>
<path d="M722,89.0 L710,83.0 M722,89.0 L710,89.0 M722,89.0 L710,95.0" stroke="#475569" stroke-width="1.3" fill="none"/>
<path d="M632,215.0 H671.0 V239.0 H710" stroke="#475569" stroke-width="1.3" fill="none"/>
<line x1="624" y1="209.0" x2="624" y2="221.0" stroke="#475569" stroke-width="1.3"/>
<path d="M722,239.0 L710,233.0 M722,239.0 L710,239.0 M722,239.0 L710,245.0" stroke="#475569" stroke-width="1.3" fill="none"/>
<rect x="20" y="54" width="267" height="196" rx="7" fill="#ffffff" stroke="#16a34a" stroke-width="1.3"/>
<rect x="20" y="54" width="267" height="26" rx="7" fill="#dcfce7" stroke="#16a34a" stroke-width="1.3"/>
<rect x="20" y="73" width="267" height="7" fill="#dcfce7"/>
<line x1="20" y1="80" x2="287" y2="80" stroke="#16a34a" stroke-width="1.1"/>
<text x="30" y="72" font-size="12.5" font-weight="700" fill="#14532d">categories</text>
<text x="30" y="93" font-size="8.5" font-weight="700" fill="#b45309">PK</text>
<text x="50" y="93" font-size="11" fill="#1f2937">id</text>
<text x="277" y="93" font-size="9.5" fill="#94a3b8" text-anchor="end">bigint</text>
<text x="30" y="111" font-size="8.5" font-weight="700" fill="#7c3aed">UQ</text>
<text x="50" y="111" font-size="11" fill="#1f2937">name</text>
<text x="277" y="111" font-size="9.5" fill="#94a3b8" text-anchor="end">varchar</text>
<text x="30" y="129" font-size="8.5" font-weight="700" fill="#7c3aed">UQ</text>
<text x="50" y="129" font-size="11" fill="#1f2937">slug</text>
<text x="277" y="129" font-size="9.5" fill="#94a3b8" text-anchor="end">varchar</text>
<text x="30" y="147" font-size="8.5" font-weight="700" fill="#0e7490">FK</text>
<text x="50" y="147" font-size="11" fill="#1f2937">parent_id</text>
<text x="277" y="147" font-size="9.5" fill="#94a3b8" text-anchor="end">→ categories</text>
<text x="50" y="165" font-size="11" fill="#1f2937">level</text>
<text x="277" y="165" font-size="9.5" fill="#94a3b8" text-anchor="end">int</text>
<text x="50" y="183" font-size="11" fill="#1f2937">active</text>
<text x="277" y="183" font-size="9.5" fill="#94a3b8" text-anchor="end">bool</text>
<text x="50" y="201" font-size="11" fill="#1f2937">deleted</text>
<text x="277" y="201" font-size="9.5" fill="#94a3b8" text-anchor="end">bool</text>
<text x="50" y="219" font-size="11" fill="#1f2937">display_order</text>
<text x="277" y="219" font-size="9.5" fill="#94a3b8" text-anchor="end">int</text>
<text x="30" y="237" font-size="8.8" font-style="italic" fill="#b0b8c4">+ audit: created_at · updated_at · created_by</text>
<rect x="365" y="54" width="267" height="322" rx="7" fill="#ffffff" stroke="#16a34a" stroke-width="1.3"/>
<rect x="365" y="54" width="267" height="26" rx="7" fill="#dcfce7" stroke="#16a34a" stroke-width="1.3"/>
<rect x="365" y="73" width="267" height="7" fill="#dcfce7"/>
<line x1="365" y1="80" x2="632" y2="80" stroke="#16a34a" stroke-width="1.1"/>
<text x="375" y="72" font-size="12.5" font-weight="700" fill="#14532d">products</text>
<text x="375" y="93" font-size="8.5" font-weight="700" fill="#b45309">PK</text>
<text x="395" y="93" font-size="11" fill="#1f2937">id</text>
<text x="622" y="93" font-size="9.5" fill="#94a3b8" text-anchor="end">bigint</text>
<text x="375" y="111" font-size="8.5" font-weight="700" fill="#0e7490">FK</text>
<text x="395" y="111" font-size="11" fill="#1f2937">category_id</text>
<text x="622" y="111" font-size="9.5" fill="#94a3b8" text-anchor="end">→ categories</text>
<text x="395" y="129" font-size="11" fill="#1f2937">name / slug</text>
<text x="622" y="129" font-size="9.5" fill="#94a3b8" text-anchor="end">varchar</text>
<text x="395" y="147" font-size="11" fill="#1f2937">sku</text>
<text x="622" y="147" font-size="9.5" fill="#94a3b8" text-anchor="end">varchar</text>
<text x="395" y="165" font-size="11" fill="#1f2937">price / discount_price</text>
<text x="622" y="165" font-size="9.5" fill="#94a3b8" text-anchor="end">numeric</text>
<text x="395" y="183" font-size="11" fill="#1f2937">unit</text>
<text x="622" y="183" font-size="9.5" fill="#94a3b8" text-anchor="end">varchar</text>
<text x="395" y="201" font-size="11" fill="#1f2937">stock_quantity</text>
<text x="622" y="201" font-size="9.5" fill="#94a3b8" text-anchor="end">int</text>
<text x="395" y="219" font-size="11" fill="#1f2937">in_stock / active</text>
<text x="622" y="219" font-size="9.5" fill="#94a3b8" text-anchor="end">bool</text>
<text x="395" y="237" font-size="11" fill="#1f2937">featured / organic</text>
<text x="622" y="237" font-size="9.5" fill="#94a3b8" text-anchor="end">bool</text>
<text x="395" y="255" font-size="11" fill="#1f2937">brand</text>
<text x="622" y="255" font-size="9.5" fill="#94a3b8" text-anchor="end">varchar</text>
<text x="395" y="273" font-size="11" fill="#1f2937">hsn_code</text>
<text x="622" y="273" font-size="9.5" fill="#94a3b8" text-anchor="end">varchar</text>
<text x="395" y="291" font-size="11" fill="#1f2937">cgst/sgst/igst_rate</text>
<text x="622" y="291" font-size="9.5" fill="#94a3b8" text-anchor="end">numeric</text>
<text x="395" y="309" font-size="11" fill="#1f2937">manage_inventory</text>
<text x="622" y="309" font-size="9.5" fill="#94a3b8" text-anchor="end">bool</text>
<text x="395" y="327" font-size="11" fill="#1f2937">average_rating</text>
<text x="622" y="327" font-size="9.5" fill="#94a3b8" text-anchor="end">numeric</text>
<text x="395" y="345" font-size="11" fill="#1f2937">review_count</text>
<text x="622" y="345" font-size="9.5" fill="#94a3b8" text-anchor="end">int</text>
<text x="375" y="363" font-size="8.8" font-style="italic" fill="#b0b8c4">+ audit: created_at · updated_at · created_by</text>
<rect x="710" y="54" width="210" height="70" rx="7" fill="#ffffff" stroke="#16a34a" stroke-width="1.3"/>
<rect x="710" y="54" width="210" height="26" rx="7" fill="#dcfce7" stroke="#16a34a" stroke-width="1.3"/>
<rect x="710" y="73" width="210" height="7" fill="#dcfce7"/>
<line x1="710" y1="80" x2="920" y2="80" stroke="#16a34a" stroke-width="1.1"/>
<text x="720" y="72" font-size="12.5" font-weight="700" fill="#14532d">product_images</text>
<text x="720" y="93" font-size="8.5" font-weight="700" fill="#0e7490">FK</text>
<text x="740" y="93" font-size="11" fill="#1f2937">product_id</text>
<text x="910" y="93" font-size="9.5" fill="#94a3b8" text-anchor="end">→ products</text>
<text x="740" y="111" font-size="11" fill="#1f2937">image_url</text>
<text x="910" y="111" font-size="9.5" fill="#94a3b8" text-anchor="end">varchar</text>
<rect x="710" y="150" width="267" height="178" rx="7" fill="#ffffff" stroke="#16a34a" stroke-width="1.3"/>
<rect x="710" y="150" width="267" height="26" rx="7" fill="#dcfce7" stroke="#16a34a" stroke-width="1.3"/>
<rect x="710" y="169" width="267" height="7" fill="#dcfce7"/>
<line x1="710" y1="176" x2="977" y2="176" stroke="#16a34a" stroke-width="1.1"/>
<text x="720" y="168" font-size="12.5" font-weight="700" fill="#14532d">product_reviews</text>
<text x="720" y="189" font-size="8.5" font-weight="700" fill="#b45309">PK</text>
<text x="740" y="189" font-size="11" fill="#1f2937">id</text>
<text x="967" y="189" font-size="9.5" fill="#94a3b8" text-anchor="end">bigint</text>
<text x="720" y="207" font-size="8.5" font-weight="700" fill="#0e7490">FK</text>
<text x="740" y="207" font-size="11" fill="#1f2937">product_id</text>
<text x="967" y="207" font-size="9.5" fill="#94a3b8" text-anchor="end">→ products</text>
<text x="740" y="225" font-size="11" fill="#1f2937">auth_user_id</text>
<text x="967" y="225" font-size="9.5" fill="#94a3b8" text-anchor="end">→ auth.users</text>
<text x="740" y="243" font-size="11" fill="#1f2937">reviewer_name</text>
<text x="967" y="243" font-size="9.5" fill="#94a3b8" text-anchor="end">varchar</text>
<text x="740" y="261" font-size="11" fill="#1f2937">rating</text>
<text x="967" y="261" font-size="9.5" fill="#94a3b8" text-anchor="end">int 1–5</text>
<text x="740" y="279" font-size="11" fill="#1f2937">comment</text>
<text x="967" y="279" font-size="9.5" fill="#94a3b8" text-anchor="end">varchar</text>
<text x="740" y="297" font-size="11" fill="#1f2937">verified / active</text>
<text x="967" y="297" font-size="9.5" fill="#94a3b8" text-anchor="end">bool</text>
<text x="720" y="315" font-size="8.8" font-style="italic" fill="#b0b8c4">+ audit: created_at · updated_at · created_by</text>
<rect x="20" y="276" width="261" height="160" rx="7" fill="#ffffff" stroke="#16a34a" stroke-width="1.3"/>
<rect x="20" y="276" width="261" height="26" rx="7" fill="#dcfce7" stroke="#16a34a" stroke-width="1.3"/>
<rect x="20" y="295" width="261" height="7" fill="#dcfce7"/>
<line x1="20" y1="302" x2="281" y2="302" stroke="#16a34a" stroke-width="1.1"/>
<text x="30" y="294" font-size="12.5" font-weight="700" fill="#14532d">product_import_jobs</text>
<text x="30" y="315" font-size="8.5" font-weight="700" fill="#b45309">PK</text>
<text x="50" y="315" font-size="11" fill="#1f2937">id</text>
<text x="271" y="315" font-size="9.5" fill="#94a3b8" text-anchor="end">bigint</text>
<text x="50" y="333" font-size="11" fill="#1f2937">import_type</text>
<text x="271" y="333" font-size="9.5" fill="#94a3b8" text-anchor="end">enum PRODUCT|IMAGE|GST</text>
<text x="50" y="351" font-size="11" fill="#1f2937">status</text>
<text x="271" y="351" font-size="9.5" fill="#94a3b8" text-anchor="end">enum</text>
<text x="50" y="369" font-size="11" fill="#1f2937">original_filename</text>
<text x="271" y="369" font-size="9.5" fill="#94a3b8" text-anchor="end">varchar</text>
<text x="50" y="387" font-size="11" fill="#1f2937">total_rows</text>
<text x="271" y="387" font-size="9.5" fill="#94a3b8" text-anchor="end">int</text>
<text x="50" y="405" font-size="11" fill="#1f2937">success_count / failure_count</text>
<text x="271" y="405" font-size="9.5" fill="#94a3b8" text-anchor="end">int</text>
<text x="50" y="423" font-size="11" fill="#1f2937">initiated_by</text>
<text x="271" y="423" font-size="9.5" fill="#94a3b8" text-anchor="end">varchar</text>
</svg>