<svg viewBox="0 0 708 500" xmlns="http://www.w3.org/2000/svg" font-family="Segoe UI, Helvetica, Arial, sans-serif">
<rect x="0" y="0" width="708" height="500" fill="#ffffff"/>
<text x="20" y="38" font-size="15" font-weight="700" fill="#312e81">shipping_db</text>
<text x="20" y="52" font-size="10.5" fill="#64748b">shipping-service (:9007) · key columns shown</text>
<path d="M343,197.0 H382.0 V134.0 H421" stroke="#475569" stroke-width="1.3" fill="none"/>
<line x1="335" y1="191.0" x2="335" y2="203.0" stroke="#475569" stroke-width="1.3"/>
<path d="M433,134.0 L421,128.0 M433,134.0 L421,134.0 M433,134.0 L421,140.0" stroke="#475569" stroke-width="1.3" fill="none"/>
<path d="M421,311.0 H382.0 V197.0 H343" stroke="#475569" stroke-width="1.3" fill="none"/>
<line x1="429" y1="305.0" x2="429" y2="317.0" stroke="#475569" stroke-width="1.3"/>
<path d="M331,197.0 L343,191.0 M331,197.0 L343,197.0 M331,197.0 L343,203.0" stroke="#475569" stroke-width="1.3" fill="none"/>
<rect x="20" y="54" width="323" height="286" rx="7" fill="#ffffff" stroke="#4f46e5" stroke-width="1.3"/>
<rect x="20" y="54" width="323" height="26" rx="7" fill="#e0e7ff" stroke="#4f46e5" stroke-width="1.3"/>
<rect x="20" y="73" width="323" height="7" fill="#e0e7ff"/>
<line x1="20" y1="80" x2="343" y2="80" stroke="#4f46e5" stroke-width="1.1"/>
<text x="30" y="72" font-size="12.5" font-weight="700" fill="#312e81">shipments</text>
<text x="30" y="93" font-size="8.5" font-weight="700" fill="#b45309">PK</text>
<text x="50" y="93" font-size="11" fill="#1f2937">id</text>
<text x="333" y="93" font-size="9.5" fill="#94a3b8" text-anchor="end">bigint</text>
<text x="30" y="111" font-size="8.5" font-weight="700" fill="#7c3aed">UQ</text>
<text x="50" y="111" font-size="11" fill="#1f2937">order_id</text>
<text x="333" y="111" font-size="9.5" fill="#94a3b8" text-anchor="end">→ order.orders.order_id</text>
<text x="50" y="129" font-size="11" fill="#1f2937">customer_id / name / phone</text>
<text x="333" y="129" font-size="9.5" fill="#94a3b8" text-anchor="end">varchar</text>
<text x="50" y="147" font-size="11" fill="#1f2937">full_address / city / state</text>
<text x="333" y="147" font-size="9.5" fill="#94a3b8" text-anchor="end">varchar</text>
<text x="50" y="165" font-size="11" fill="#1f2937">status</text>
<text x="333" y="165" font-size="9.5" fill="#94a3b8" text-anchor="end">enum PENDING…DELIVERED</text>
<text x="50" y="183" font-size="11" fill="#1f2937">order_source</text>
<text x="333" y="183" font-size="9.5" fill="#94a3b8" text-anchor="end">varchar</text>
<text x="50" y="201" font-size="11" fill="#1f2937">order_amount / total_amount</text>
<text x="333" y="201" font-size="9.5" fill="#94a3b8" text-anchor="end">numeric</text>
<text x="50" y="219" font-size="11" fill="#1f2937">expected_delivery_date</text>
<text x="333" y="219" font-size="9.5" fill="#94a3b8" text-anchor="end">date</text>
<text x="50" y="237" font-size="11" fill="#1f2937">packed_at / dispatched_at</text>
<text x="333" y="237" font-size="9.5" fill="#94a3b8" text-anchor="end">timestamp</text>
<text x="50" y="255" font-size="11" fill="#1f2937">out_for_delivery_at / delivered_at</text>
<text x="333" y="255" font-size="9.5" fill="#94a3b8" text-anchor="end">timestamp</text>
<text x="50" y="273" font-size="11" fill="#1f2937">tracking_number</text>
<text x="333" y="273" font-size="9.5" fill="#94a3b8" text-anchor="end">varchar</text>
<text x="30" y="291" font-size="8.5" font-weight="700" fill="#0e7490">FK</text>
<text x="50" y="291" font-size="11" fill="#1f2937">assigned_to_id</text>
<text x="333" y="291" font-size="9.5" fill="#94a3b8" text-anchor="end">→ delivery_boys</text>
<text x="50" y="309" font-size="11" fill="#1f2937">assigned_to</text>
<text x="333" y="309" font-size="9.5" fill="#94a3b8" text-anchor="end">denorm</text>
<text x="30" y="327" font-size="8.8" font-style="italic" fill="#b0b8c4">+ audit: created_at · updated_at · created_by</text>
<rect x="421" y="54" width="224" height="160" rx="7" fill="#ffffff" stroke="#4f46e5" stroke-width="1.3"/>
<rect x="421" y="54" width="224" height="26" rx="7" fill="#e0e7ff" stroke="#4f46e5" stroke-width="1.3"/>
<rect x="421" y="73" width="224" height="7" fill="#e0e7ff"/>
<line x1="421" y1="80" x2="645" y2="80" stroke="#4f46e5" stroke-width="1.1"/>
<text x="431" y="72" font-size="12.5" font-weight="700" fill="#312e81">packing_items</text>
<text x="431" y="93" font-size="8.5" font-weight="700" fill="#b45309">PK</text>
<text x="451" y="93" font-size="11" fill="#1f2937">id</text>
<text x="635" y="93" font-size="9.5" fill="#94a3b8" text-anchor="end">bigint</text>
<text x="431" y="111" font-size="8.5" font-weight="700" fill="#0e7490">FK</text>
<text x="451" y="111" font-size="11" fill="#1f2937">shipment_id</text>
<text x="635" y="111" font-size="9.5" fill="#94a3b8" text-anchor="end">→ shipments</text>
<text x="451" y="129" font-size="11" fill="#1f2937">product_id / sku</text>
<text x="635" y="129" font-size="9.5" fill="#94a3b8" text-anchor="end">varchar</text>
<text x="451" y="147" font-size="11" fill="#1f2937">product_name / brand</text>
<text x="635" y="147" font-size="9.5" fill="#94a3b8" text-anchor="end">varchar</text>
<text x="451" y="165" font-size="11" fill="#1f2937">unit_of_measure</text>
<text x="635" y="165" font-size="9.5" fill="#94a3b8" text-anchor="end">varchar</text>
<text x="451" y="183" font-size="11" fill="#1f2937">ordered_quantity</text>
<text x="635" y="183" font-size="9.5" fill="#94a3b8" text-anchor="end">int</text>
<text x="451" y="201" font-size="11" fill="#1f2937">packed_quantity</text>
<text x="635" y="201" font-size="9.5" fill="#94a3b8" text-anchor="end">int</text>
<rect x="421" y="240" width="267" height="142" rx="7" fill="#ffffff" stroke="#4f46e5" stroke-width="1.3"/>
<rect x="421" y="240" width="267" height="26" rx="7" fill="#e0e7ff" stroke="#4f46e5" stroke-width="1.3"/>
<rect x="421" y="259" width="267" height="7" fill="#e0e7ff"/>
<line x1="421" y1="266" x2="688" y2="266" stroke="#4f46e5" stroke-width="1.1"/>
<text x="431" y="258" font-size="12.5" font-weight="700" fill="#312e81">delivery_boys</text>
<text x="431" y="279" font-size="8.5" font-weight="700" fill="#b45309">PK</text>
<text x="451" y="279" font-size="11" fill="#1f2937">id</text>
<text x="678" y="279" font-size="9.5" fill="#94a3b8" text-anchor="end">bigint</text>
<text x="451" y="297" font-size="11" fill="#1f2937">name</text>
<text x="678" y="297" font-size="9.5" fill="#94a3b8" text-anchor="end">varchar</text>
<text x="451" y="315" font-size="11" fill="#1f2937">phone</text>
<text x="678" y="315" font-size="9.5" fill="#94a3b8" text-anchor="end">varchar</text>
<text x="451" y="333" font-size="11" fill="#1f2937">vehicle_type</text>
<text x="678" y="333" font-size="9.5" fill="#94a3b8" text-anchor="end">varchar</text>
<text x="451" y="351" font-size="11" fill="#1f2937">is_available</text>
<text x="678" y="351" font-size="9.5" fill="#94a3b8" text-anchor="end">bool</text>
<text x="431" y="369" font-size="8.8" font-style="italic" fill="#b0b8c4">+ audit: created_at · updated_at · created_by</text>
<rect x="20" y="366" width="261" height="88" rx="7" fill="#ffffff" stroke="#4f46e5" stroke-width="1.3"/>
<rect x="20" y="366" width="261" height="26" rx="7" fill="#e0e7ff" stroke="#4f46e5" stroke-width="1.3"/>
<rect x="20" y="385" width="261" height="7" fill="#e0e7ff"/>
<line x1="20" y1="392" x2="281" y2="392" stroke="#4f46e5" stroke-width="1.1"/>
<text x="30" y="384" font-size="12.5" font-weight="700" fill="#312e81">delivery_days_config</text>
<text x="30" y="405" font-size="8.5" font-weight="700" fill="#b45309">PK</text>
<text x="50" y="405" font-size="11" fill="#1f2937">id</text>
<text x="271" y="405" font-size="9.5" fill="#94a3b8" text-anchor="end">singleton = 1</text>
<text x="50" y="423" font-size="11" fill="#1f2937">monday … sunday</text>
<text x="271" y="423" font-size="9.5" fill="#94a3b8" text-anchor="end">bool (per weekday)</text>
<text x="50" y="441" font-size="11" fill="#1f2937">updated_at</text>
<text x="271" y="441" font-size="9.5" fill="#94a3b8" text-anchor="end">timestamp</text>
</svg>