<svg viewBox="0 0 702 422" xmlns="http://www.w3.org/2000/svg" font-family="Segoe UI, Helvetica, Arial, sans-serif">
<rect x="0" y="0" width="702" height="422" fill="#ffffff"/>
<text x="20" y="38" font-size="15" font-weight="700" fill="#1e293b">subscription_db</text>
<text x="20" y="52" font-size="10.5" fill="#64748b">subscription-service (:9014) · key columns shown</text>
<path d="M300,215.0 H339.0 V152.0 H378" stroke="#475569" stroke-width="1.3" fill="none"/>
<line x1="292" y1="209.0" x2="292" y2="221.0" stroke="#475569" stroke-width="1.3"/>
<path d="M390,152.0 L378,146.0 M390,152.0 L378,152.0 M390,152.0 L378,158.0" stroke="#475569" stroke-width="1.3" fill="none"/>
<rect x="20" y="54" width="280" height="322" rx="7" fill="#ffffff" stroke="#475569" stroke-width="1.3"/>
<rect x="20" y="54" width="280" height="26" rx="7" fill="#e2e8f0" stroke="#475569" stroke-width="1.3"/>
<rect x="20" y="73" width="280" height="7" fill="#e2e8f0"/>
<line x1="20" y1="80" x2="300" y2="80" stroke="#475569" stroke-width="1.1"/>
<text x="30" y="72" font-size="12.5" font-weight="700" fill="#1e293b">subscriptions</text>
<text x="30" y="93" font-size="8.5" font-weight="700" fill="#b45309">PK</text>
<text x="50" y="93" font-size="11" fill="#1f2937">id</text>
<text x="290" y="93" font-size="9.5" fill="#94a3b8" text-anchor="end">bigint</text>
<text x="50" y="111" font-size="11" fill="#1f2937">auth_user_id</text>
<text x="290" y="111" font-size="9.5" fill="#94a3b8" text-anchor="end">→ auth.users</text>
<text x="50" y="129" font-size="11" fill="#1f2937">customer_name / phone</text>
<text x="290" y="129" font-size="9.5" fill="#94a3b8" text-anchor="end">varchar</text>
<text x="50" y="147" font-size="11" fill="#1f2937">milk_type</text>
<text x="290" y="147" font-size="9.5" fill="#94a3b8" text-anchor="end">enum</text>
<text x="50" y="165" font-size="11" fill="#1f2937">quantity_ml</text>
<text x="290" y="165" font-size="9.5" fill="#94a3b8" text-anchor="end">int</text>
<text x="50" y="183" font-size="11" fill="#1f2937">start_date / end_date</text>
<text x="290" y="183" font-size="9.5" fill="#94a3b8" text-anchor="end">date</text>
<text x="50" y="201" font-size="11" fill="#1f2937">price_per_day</text>
<text x="290" y="201" font-size="9.5" fill="#94a3b8" text-anchor="end">numeric</text>
<text x="50" y="219" font-size="11" fill="#1f2937">total_amount_paid</text>
<text x="290" y="219" font-size="9.5" fill="#94a3b8" text-anchor="end">numeric</text>
<text x="50" y="237" font-size="11" fill="#1f2937">status</text>
<text x="290" y="237" font-size="9.5" fill="#94a3b8" text-anchor="end">enum PENDING_PAYMENT|ACTIVE…</text>
<text x="50" y="255" font-size="11" fill="#1f2937">payment_method</text>
<text x="290" y="255" font-size="9.5" fill="#94a3b8" text-anchor="end">enum</text>
<text x="50" y="273" font-size="11" fill="#1f2937">payment_status</text>
<text x="290" y="273" font-size="9.5" fill="#94a3b8" text-anchor="end">enum</text>
<text x="50" y="291" font-size="11" fill="#1f2937">razorpay_order_id</text>
<text x="290" y="291" font-size="9.5" fill="#94a3b8" text-anchor="end">varchar</text>
<text x="50" y="309" font-size="11" fill="#1f2937">delivery_full_name / phone</text>
<text x="290" y="309" font-size="9.5" fill="#94a3b8" text-anchor="end">varchar</text>
<text x="50" y="327" font-size="11" fill="#1f2937">delivery_address_line1 / city</text>
<text x="290" y="327" font-size="9.5" fill="#94a3b8" text-anchor="end">varchar</text>
<text x="50" y="345" font-size="11" fill="#1f2937">delivery_pincode</text>
<text x="290" y="345" font-size="9.5" fill="#94a3b8" text-anchor="end">varchar</text>
<text x="30" y="363" font-size="8.8" font-style="italic" fill="#b0b8c4">+ audit: created_at · updated_at · created_by</text>
<rect x="378" y="54" width="304" height="196" rx="7" fill="#ffffff" stroke="#475569" stroke-width="1.3"/>
<rect x="378" y="54" width="304" height="26" rx="7" fill="#e2e8f0" stroke="#475569" stroke-width="1.3"/>
<rect x="378" y="73" width="304" height="7" fill="#e2e8f0"/>
<line x1="378" y1="80" x2="682" y2="80" stroke="#475569" stroke-width="1.1"/>
<text x="388" y="72" font-size="12.5" font-weight="700" fill="#1e293b">subscription_day_logs</text>
<text x="388" y="93" font-size="8.5" font-weight="700" fill="#b45309">PK</text>
<text x="408" y="93" font-size="11" fill="#1f2937">id</text>
<text x="672" y="93" font-size="9.5" fill="#94a3b8" text-anchor="end">bigint</text>
<text x="388" y="111" font-size="8.5" font-weight="700" fill="#0e7490">FK</text>
<text x="408" y="111" font-size="11" fill="#1f2937">subscription_id</text>
<text x="672" y="111" font-size="9.5" fill="#94a3b8" text-anchor="end">→ subscriptions</text>
<text x="388" y="129" font-size="8.5" font-weight="700" fill="#7c3aed">UQ</text>
<text x="408" y="129" font-size="11" fill="#1f2937">(subscription_id, delivery_date)</text>
<text x="672" y="129" font-size="9.5" fill="#94a3b8" text-anchor="end">unique</text>
<text x="408" y="147" font-size="11" fill="#1f2937">delivery_date</text>
<text x="672" y="147" font-size="9.5" fill="#94a3b8" text-anchor="end">date</text>
<text x="408" y="165" font-size="11" fill="#1f2937">delivered</text>
<text x="672" y="165" font-size="9.5" fill="#94a3b8" text-anchor="end">bool</text>
<text x="408" y="183" font-size="11" fill="#1f2937">paused</text>
<text x="672" y="183" font-size="9.5" fill="#94a3b8" text-anchor="end">bool</text>
<text x="408" y="201" font-size="11" fill="#1f2937">quantity_ml</text>
<text x="672" y="201" font-size="9.5" fill="#94a3b8" text-anchor="end">int</text>
<text x="408" y="219" font-size="11" fill="#1f2937">note</text>
<text x="672" y="219" font-size="9.5" fill="#94a3b8" text-anchor="end">varchar</text>
<text x="388" y="237" font-size="8.8" font-style="italic" fill="#b0b8c4">+ audit: created_at · updated_at · created_by</text>
</svg>